<?xml version="1.0" encoding="utf-8" standalone="no"?>
<!DOCTYPE svg PUBLIC "-//W3C//DTD SVG 1.1//EN"
  "http://www.w3.org/Graphics/SVG/1.1/DTD/svg11.dtd">
<!-- Created with matplotlib (http://matplotlib.org/) -->
<svg height="432pt" version="1.1" viewBox="0 0 720 432" width="720pt" xmlns="http://www.w3.org/2000/svg" xmlns:xlink="http://www.w3.org/1999/xlink">
 <defs>
  <style type="text/css">
*{stroke-linecap:butt;stroke-linejoin:round;}
  </style>
 </defs>
 <g id="figure_1">
  <g id="patch_1">
   <path d="
M0 432
L720 432
L720 0
L0 0
z
" style="fill:#ffffff;"/>
  </g>
  <g id="axes_1">
   <g id="patch_2">
    <path d="
M90 388.8
L648 388.8
L648 43.2
L90 43.2
z
" style="fill:#ffffff;"/>
   </g>
   <g id="line2d_1">
    <path clip-path="url(#pd03f7f58b8)" d="
M-1 345.435
L40.8705 337.681
L90 321.955
L124.858 306.719
L151.896 291.066
L173.987 275.287
L192.666 259.843
L208.845 244.625
L223.117 229.682
L235.883 215.276
L247.432 201.468
L257.975 188.51
L267.673 176.808
L276.653 166.353
L292.833 148.671
L300.178 140.148
L307.104 131.294
L325.782 105.984
L331.419 99.2084
L336.805 93.3911
L341.962 88.3415
L346.908 84.0801
L351.661 80.8775
L356.234 78.8993
L360.64 77.9973
L364.892 77.7632
L372.973 77.9942
L400.79 79.3881
L409.77 79.6197
L418.129 79.6028
L425.949 79.2822
L430.896 78.8989
L437.956 78.07
L444.628 76.9821
L450.951 75.6894
L456.96 74.2416
L464.536 72.1477
L478.399 67.8859
L489.35 64.649
L496.608 62.7487
L502.117 61.5277
L507.386 60.5902
L512.435 59.9055
L517.283 59.4473
L521.944 59.1914
L527.528 59.1163
L532.867 59.2567
L538.978 59.6572
L546.673 60.4465
L554.784 61.5493
L563.202 62.9536
L570.308 64.3558
L579.178 66.4252
L586.104 68.2944
L593.291 70.4918
L600.076 72.8622
L606.501 75.3907
L612.602 78.0119
L620.456 81.6869
L628.782 85.8393
L637.457 90.3874
L647.595 95.9254
L647.595 95.9254" style="fill:none;opacity:0.8;stroke:#ff0000;stroke-linecap:square;stroke-width:2.0;"/>
   </g>
   <g id="line2d_2">
    <path clip-path="url(#pd03f7f58b8)" d="
M-1 350.085
L40.8705 342.217
L90 326.529
L124.858 311.874
L151.896 296.549
L173.987 281.145
L192.666 265.984
L208.845 250.674
L223.117 235.792
L235.883 221.473
L247.432 207.421
L267.673 182.013
L276.653 171.224
L285.013 161.879
L292.833 153.534
L300.178 145.494
L307.104 137.156
L313.655 128.381
L319.871 119.367
L331.419 102.146
L336.805 94.8238
L341.962 88.6926
L346.908 83.8537
L351.661 80.4665
L356.234 78.5636
L360.64 77.7954
L364.892 77.6415
L372.973 77.9337
L403.858 79.5217
L412.621 79.7299
L420.793 79.6781
L425.949 79.4628
L430.896 79.0955
L435.648 78.5797
L440.221 77.9212
L446.772 76.7136
L452.987 75.3189
L460.807 73.2991
L469.922 70.7125
L496.608 62.9632
L502.117 61.6339
L507.386 60.5936
L512.435 59.8313
L517.283 59.3412
L521.944 59.0811
L526.432 59.0157
L531.818 59.1578
L537.98 59.5577
L544.795 60.2
L553.028 61.224
L560.738 62.3995
L567.986 63.7272
L575.561 65.375
L582.691 67.2128
L589.424 69.1923
L596.423 71.544
L603.039 74.0134
L609.313 76.6001
L615.805 79.4825
L623.954 83.3937
L632.969 88.0219
L642.209 92.9537
L647.595 95.8978
L647.595 95.8978" style="fill:none;opacity:0.8;stroke:#ff0000;stroke-linecap:square;stroke-width:2.0;"/>
   </g>
   <g id="line2d_3">
    <path clip-path="url(#pd03f7f58b8)" d="
M-1 348.76
L40.8705 340.728
L90 324.629
L124.858 309.133
L151.896 293.892
L173.987 278.246
L192.666 263.07
L208.845 247.984
L223.117 233.165
L235.883 218.771
L247.432 204.726
L267.673 179.503
L276.653 168.616
L285.013 159.176
L292.833 150.53
L300.178 142.036
L307.104 133.197
L313.655 124.079
L325.782 106.375
L331.419 98.6894
L336.805 92.3288
L341.962 87.2776
L346.908 83.3744
L351.661 80.5176
L356.234 78.7412
L360.64 77.9354
L364.892 77.7456
L372.973 78.0095
L400.79 79.3934
L409.77 79.6073
L418.129 79.5585
L423.398 79.3487
L428.448 78.9782
L433.295 78.4561
L440.221 77.4245
L446.772 76.1831
L452.987 74.8009
L460.807 72.84
L471.666 69.7992
L493.757 63.4722
L500.763 61.8131
L506.09 60.7713
L511.192 60.0012
L516.089 59.4713
L520.795 59.1806
L526.432 59.0794
L531.818 59.2174
L537.98 59.6321
L544.795 60.3191
L553.028 61.4207
L560.738 62.6711
L567.986 64.0562
L576.293 65.9081
L583.381 67.7208
L590.077 69.6697
L595.18 71.3185
L601.862 73.7253
L608.196 76.246
L614.747 79.0803
L622.965 82.8994
L631.589 87.2313
L641.359 92.4104
L647.595 95.8499
L647.595 95.8499" style="fill:none;opacity:0.8;stroke:#ff0000;stroke-linecap:square;stroke-width:2.0;"/>
   </g>
   <g id="line2d_4">
    <path clip-path="url(#pd03f7f58b8)" d="
M-1 349.739
L40.8705 341.526
L90 325.601
L124.858 311.21
L151.896 295.391
L173.987 279.677
L192.666 264.221
L208.845 249.193
L223.117 234.49
L235.883 219.81
L247.432 205.71
L267.673 180.359
L276.653 169.57
L285.013 160.101
L292.833 151.486
L300.178 142.926
L307.104 133.879
L313.655 124.372
L325.782 105.809
L331.419 97.5834
L336.805 90.4545
L341.962 84.7448
L346.908 80.7934
L351.661 78.612
L356.234 77.7641
L360.64 77.5918
L369 77.8779
L400.79 79.5259
L409.77 79.7501
L418.129 79.7185
L423.398 79.5166
L428.448 79.173
L433.295 78.6792
L440.221 77.6971
L446.772 76.5134
L452.987 75.1406
L458.899 73.6281
L468.153 70.966
L493.757 63.3331
L499.394 61.9453
L504.78 60.8471
L509.937 60.036
L514.883 59.4866
L519.635 59.1786
L524.208 59.0598
L529.692 59.1404
L535.961 59.4829
L542.887 60.1128
L551.246 61.1352
L559.066 62.3162
L566.412 63.6374
L573.338 65.1014
L581.298 67.0646
L587.443 68.8224
L593.924 70.8842
L600.675 73.2894
L607.069 75.7936
L613.679 78.6375
L621.466 82.2562
L630.194 86.5888
L639.207 91.3536
L647.595 95.9498
L647.595 95.9498" style="fill:none;opacity:0.8;stroke:#ff0000;stroke-linecap:square;stroke-width:2.0;"/>
   </g>
   <g id="line2d_5">
    <path clip-path="url(#pd03f7f58b8)" d="
M-1 350.776
L40.8705 343.056
L90 328.236
L124.858 312.27
L151.896 297.266
L173.987 282.593
L192.666 267.151
L208.845 252.043
L223.117 237.393
L235.883 222.951
L247.432 208.906
L267.673 183.163
L276.653 172.108
L285.013 162.518
L300.178 145.799
L307.104 137.36
L313.655 128.458
L319.871 119.319
L331.419 101.947
L336.805 94.5249
L341.962 88.3456
L346.908 83.5832
L351.661 80.3514
L356.234 78.5378
L360.64 77.8035
L364.892 77.6642
L372.973 77.9616
L400.79 79.3981
L409.77 79.6418
L418.129 79.6392
L425.949 79.3203
L433.295 78.6985
L440.221 77.7954
L446.772 76.6906
L452.987 75.4292
L458.899 74.0504
L466.358 72.0742
L476.75 69.0202
L493.757 63.9785
L499.394 62.495
L504.78 61.2922
L509.937 60.3868
L514.883 59.7457
L519.635 59.342
L525.325 59.118
L530.76 59.1582
L535.961 59.3843
L542.887 59.9478
L549.438 60.6834
L556.515 61.6767
L564.013 62.9449
L571.833 64.5231
L578.464 66.077
L586.104 68.1449
L592.655 70.1505
L600.076 72.7266
L606.501 75.2324
L613.142 78.083
L621.466 82.0035
L631.126 86.9019
L642.209 92.843
L647.595 95.8293
L647.595 95.8293" style="fill:none;opacity:0.8;stroke:#ff0000;stroke-linecap:square;stroke-width:2.0;"/>
   </g>
   <g id="line2d_6">
    <path clip-path="url(#pd03f7f58b8)" d="
M-1 350.985
L40.8705 343.252
L90 326.794
L124.858 311.007
L151.896 295.592
L173.987 280.471
L192.666 265.08
L208.845 249.863
L223.117 235.037
L235.883 220.412
L247.432 206.392
L267.673 180.959
L276.653 170.157
L285.013 160.736
L292.833 152.212
L300.178 143.939
L307.104 135.308
L313.655 126.354
L325.782 109.124
L331.419 101.646
L336.805 95.1047
L341.962 89.4843
L346.908 84.7944
L351.661 81.2338
L356.234 79.0279
L360.64 78.0032
L364.892 77.726
L369 77.7753
L380.549 78.3554
L400.79 79.3847
L409.77 79.6543
L418.129 79.6853
L423.398 79.54
L428.448 79.2551
L433.295 78.8231
L437.956 78.2497
L444.628 77.179
L450.951 75.9153
L458.899 74.0108
L466.358 71.9053
L476.75 68.6619
L487.845 65.234
L495.191 63.2102
L500.763 61.9046
L506.09 60.8599
L511.192 60.0745
L516.089 59.5377
L520.795 59.211
L526.432 59.0688
L531.818 59.1633
L537.98 59.5192
L544.795 60.146
L552.141 61.0456
L559.905 62.2325
L567.201 63.5851
L575.561 65.4464
L582.691 67.2817
L590.077 69.4558
L595.803 71.3445
L600.675 73.0987
L607.069 75.603
L613.679 78.4346
L619.948 81.3306
L628.308 85.4527
L637.016 90.0003
L647.595 95.7595
L647.595 95.7595" style="fill:none;opacity:0.8;stroke:#ff0000;stroke-linecap:square;stroke-width:2.0;"/>
   </g>
   <g id="line2d_7">
    <path clip-path="url(#pd03f7f58b8)" d="
M-1 349.483
L40.8705 341.65
L90 326.567
L124.858 310.23
L151.896 294.121
L173.987 278.596
L192.666 263.519
L208.845 248.608
L223.117 233.712
L235.883 218.997
L247.432 204.848
L267.673 179.263
L276.653 168.225
L285.013 158.411
L292.833 149.445
L300.178 140.622
L307.104 131.484
L313.655 122.129
L325.782 104.132
L331.419 96.1412
L336.805 89.2988
L341.962 83.9852
L346.908 80.4355
L351.661 78.5454
L356.234 77.7992
L360.64 77.6482
L369 77.9452
L400.79 79.5931
L409.77 79.8233
L418.129 79.7904
L423.398 79.5847
L428.448 79.2171
L433.295 78.6871
L440.221 77.6252
L446.772 76.3354
L454.99 74.4487
L466.358 71.5634
L476.75 68.7085
L499.394 62.2808
L504.78 61.0967
L509.937 60.2246
L514.883 59.6288
L519.635 59.2683
L524.208 59.1061
L529.692 59.1324
L535.961 59.42
L542.887 59.9975
L549.438 60.7493
L557.372 61.8819
L564.013 63.053
L570.308 64.3477
L577.021 65.9286
L583.381 67.6252
L590.077 69.6516
L597.039 72.0192
L604.204 74.7159
L610.419 77.2665
L618.926 81.0477
L626.392 84.6169
L633.88 88.4023
L641.785 92.5973
L647.595 95.7953
L647.595 95.7953" style="fill:none;opacity:0.8;stroke:#ff0000;stroke-linecap:square;stroke-width:2.0;"/>
   </g>
   <g id="line2d_8">
    <path clip-path="url(#pd03f7f58b8)" d="
M-1 350.843
L40.8705 342.86
L90 327.409
L124.858 312.223
L151.896 297.28
L173.987 282.541
L192.666 267.423
L208.845 252.366
L223.117 237.472
L235.883 223.152
L247.432 208.88
L267.673 182.991
L276.653 171.957
L285.013 162.268
L292.833 153.563
L300.178 145.2
L307.104 136.604
L313.655 127.745
L319.871 119.076
L325.782 111.063
L331.419 104.021
L336.805 98.0277
L341.962 92.7943
L346.908 88.0703
L351.661 83.9568
L356.234 80.8164
L360.64 78.8699
L364.892 77.9842
L369 77.7518
L376.82 77.9867
L400.79 79.177
L409.77 79.4041
L418.129 79.3707
L423.398 79.1644
L428.448 78.8039
L433.295 78.2885
L437.956 77.6276
L444.628 76.4166
L450.951 75.0265
L460.807 72.5628
L471.666 69.6247
L496.608 62.6935
L502.117 61.4857
L507.386 60.5515
L512.435 59.8709
L517.283 59.4278
L521.944 59.1895
L527.528 59.1371
L532.867 59.3002
L538.978 59.7068
L546.673 60.4808
L553.028 61.321
L560.738 62.5695
L568.765 64.1551
L575.561 65.6851
L583.381 67.6661
L590.077 69.5888
L596.423 71.6438
L602.452 73.8164
L609.313 76.557
L616.331 79.6294
L622.965 82.7641
L630.194 86.3805
L640.072 91.5955
L647.595 95.7484
L647.595 95.7484" style="fill:none;opacity:0.8;stroke:#ff0000;stroke-linecap:square;stroke-width:2.0;"/>
   </g>
   <g id="line2d_9">
    <path clip-path="url(#pd03f7f58b8)" d="
M-1 349.202
L40.8705 341.713
L90 325.71
L124.858 310.406
L151.896 294.913
L173.987 279.987
L192.666 264.259
L208.845 249.201
L223.117 234.475
L235.883 219.708
L247.432 205.611
L276.653 168.624
L285.013 158.783
L300.178 141.637
L307.104 133.384
L313.655 125.147
L331.419 102.051
L336.805 95.3496
L341.962 89.2928
L346.908 84.217
L351.661 80.5952
L356.234 78.5792
L360.64 77.7929
L364.892 77.6486
L372.973 77.9403
L400.79 79.3339
L409.77 79.5531
L418.129 79.517
L423.398 79.3198
L428.448 78.9745
L435.648 78.1805
L442.444 77.1132
L448.88 75.8421
L456.96 73.9772
L466.358 71.5082
L480.025 67.6364
L493.757 63.7097
L499.394 62.2824
L504.78 61.1228
L509.937 60.2362
L514.883 59.6079
L519.635 59.2272
L524.208 59.0573
L529.692 59.0963
L534.938 59.3345
L541.921 59.9044
L549.438 60.7693
L556.515 61.7774
L564.818 63.2081
L571.833 64.6288
L579.889 66.5549
L586.104 68.261
L592.655 70.2843
L599.475 72.6645
L605.358 74.9187
L610.969 77.2681
L617.894 80.4034
L624.935 83.8246
L634.333 88.6601
L640.932 92.1977
L647.595 95.8617
L647.595 95.8617" style="fill:none;opacity:0.8;stroke:#ff0000;stroke-linecap:square;stroke-width:2.0;"/>
   </g>
   <g id="matplotlib.axis_1">
    <g id="xtick_1">
     <g id="line2d_10">
      <defs>
       <path d="
M0 0
L0 -4" id="m93b0483c22" style="stroke:#000000;stroke-width:0.5;"/>
      </defs>
      <g>
       <use style="stroke:#000000;stroke-width:0.5;" x="90.0" xlink:href="#m93b0483c22" y="388.8"/>
      </g>
     </g>
     <g id="line2d_11">
      <defs>
       <path d="
M0 0
L0 4" id="m741efc42ff" style="stroke:#000000;stroke-width:0.5;"/>
      </defs>
      <g>
       <use style="stroke:#000000;stroke-width:0.5;" x="90.0" xlink:href="#m741efc42ff" y="43.2"/>
      </g>
     </g>
     <g id="text_1">
      <!-- $\mathdefault{10^{-1}}$ -->
      <defs>
       <path d="
M5.42188 35.8906
L36.0781 35.8906
L36.0781 21.6875
L5.42188 21.6875
z
" id="BitstreamVeraSans-Bold-2d"/>
       <path d="
M11.7188 12.9844
L28.3281 12.9844
L28.3281 60.1094
L11.2812 56.5938
L11.2812 69.3906
L28.2188 72.9062
L46.0938 72.9062
L46.0938 12.9844
L62.7031 12.9844
L62.7031 0
L11.7188 0
z
" id="BitstreamVeraSans-Bold-31"/>
       <path d="
M46 36.5312
Q46 50.2031 43.4375 55.7812
Q40.875 61.375 34.8125 61.375
Q28.7656 61.375 26.1719 55.7812
Q23.5781 50.2031 23.5781 36.5312
Q23.5781 22.7031 26.1719 17.0312
Q28.7656 11.375 34.8125 11.375
Q40.8281 11.375 43.4062 17.0312
Q46 22.7031 46 36.5312
M64.7969 36.375
Q64.7969 18.2656 56.9844 8.42188
Q49.1719 -1.42188 34.8125 -1.42188
Q20.4062 -1.42188 12.5938 8.42188
Q4.78125 18.2656 4.78125 36.375
Q4.78125 54.5469 12.5938 64.375
Q20.4062 74.2188 34.8125 74.2188
Q49.1719 74.2188 56.9844 64.375
Q64.7969 54.5469 64.7969 36.375" id="BitstreamVeraSans-Bold-30"/>
      </defs>
      <g transform="translate(78.1 401.3203125)scale(0.1 -0.1)">
       <use transform="translate(0.0 0.465625)" xlink:href="#BitstreamVeraSans-Bold-31"/>
       <use transform="translate(69.580078125 0.465625)" xlink:href="#BitstreamVeraSans-Bold-30"/>
       <use transform="translate(139.16015625 52.965625)scale(0.7)" xlink:href="#BitstreamVeraSans-Bold-2d"/>
       <use transform="translate(168.212890625 52.965625)scale(0.7)" xlink:href="#BitstreamVeraSans-Bold-31"/>
      </g>
     </g>
    </g>
    <g id="xtick_2">
     <g id="line2d_12">
      <g>
       <use style="stroke:#000000;stroke-width:0.5;" x="369.0" xlink:href="#m93b0483c22" y="388.8"/>
      </g>
     </g>
     <g id="line2d_13">
      <g>
       <use style="stroke:#000000;stroke-width:0.5;" x="369.0" xlink:href="#m741efc42ff" y="43.2"/>
      </g>
     </g>
     <g id="text_2">
      <!-- $\mathdefault{10^{0}}$ -->
      <g transform="translate(358.55 401.4203125)scale(0.1 -0.1)">
       <use transform="translate(0.0 0.546875)" xlink:href="#BitstreamVeraSans-Bold-31"/>
       <use transform="translate(69.580078125 0.546875)" xlink:href="#BitstreamVeraSans-Bold-30"/>
       <use transform="translate(139.16015625 53.046875)scale(0.7)" xlink:href="#BitstreamVeraSans-Bold-30"/>
      </g>
     </g>
    </g>
    <g id="xtick_3">
     <g id="line2d_14">
      <g>
       <use style="stroke:#000000;stroke-width:0.5;" x="648.0" xlink:href="#m93b0483c22" y="388.8"/>
      </g>
     </g>
     <g id="line2d_15">
      <g>
       <use style="stroke:#000000;stroke-width:0.5;" x="648.0" xlink:href="#m741efc42ff" y="43.2"/>
      </g>
     </g>
     <g id="text_3">
      <!-- $\mathdefault{10^{1}}$ -->
      <g transform="translate(637.55 401.3203125)scale(0.1 -0.1)">
       <use transform="translate(0.0 0.465625)" xlink:href="#BitstreamVeraSans-Bold-31"/>
       <use transform="translate(69.580078125 0.465625)" xlink:href="#BitstreamVeraSans-Bold-30"/>
       <use transform="translate(139.16015625 52.965625)scale(0.7)" xlink:href="#BitstreamVeraSans-Bold-31"/>
      </g>
     </g>
    </g>
    <g id="xtick_4">
     <g id="line2d_16">
      <defs>
       <path d="
M0 0
L0 -2" id="m177f7580d0" style="stroke:#000000;stroke-width:0.5;"/>
      </defs>
      <g>
       <use style="stroke:#000000;stroke-width:0.5;" x="173.98736879" xlink:href="#m177f7580d0" y="388.8"/>
      </g>
     </g>
     <g id="line2d_17">
      <defs>
       <path d="
M0 0
L0 2" id="m5284c7e2a0" style="stroke:#000000;stroke-width:0.5;"/>
      </defs>
      <g>
       <use style="stroke:#000000;stroke-width:0.5;" x="173.98736879" xlink:href="#m5284c7e2a0" y="43.2"/>
      </g>
     </g>
    </g>
    <g id="xtick_5">
     <g id="line2d_18">
      <g>
       <use style="stroke:#000000;stroke-width:0.5;" x="223.116830067" xlink:href="#m177f7580d0" y="388.8"/>
      </g>
     </g>
     <g id="line2d_19">
      <g>
       <use style="stroke:#000000;stroke-width:0.5;" x="223.116830067" xlink:href="#m5284c7e2a0" y="43.2"/>
      </g>
     </g>
    </g>
    <g id="xtick_6">
     <g id="line2d_20">
      <g>
       <use style="stroke:#000000;stroke-width:0.5;" x="257.974737581" xlink:href="#m177f7580d0" y="388.8"/>
      </g>
     </g>
     <g id="line2d_21">
      <g>
       <use style="stroke:#000000;stroke-width:0.5;" x="257.974737581" xlink:href="#m5284c7e2a0" y="43.2"/>
      </g>
     </g>
    </g>
    <g id="xtick_7">
     <g id="line2d_22">
      <g>
       <use style="stroke:#000000;stroke-width:0.5;" x="285.01263121" xlink:href="#m177f7580d0" y="388.8"/>
      </g>
     </g>
     <g id="line2d_23">
      <g>
       <use style="stroke:#000000;stroke-width:0.5;" x="285.01263121" xlink:href="#m5284c7e2a0" y="43.2"/>
      </g>
     </g>
    </g>
    <g id="xtick_8">
     <g id="line2d_24">
      <g>
       <use style="stroke:#000000;stroke-width:0.5;" x="307.104198857" xlink:href="#m177f7580d0" y="388.8"/>
      </g>
     </g>
     <g id="line2d_25">
      <g>
       <use style="stroke:#000000;stroke-width:0.5;" x="307.104198857" xlink:href="#m5284c7e2a0" y="43.2"/>
      </g>
     </g>
    </g>
    <g id="xtick_9">
     <g id="line2d_26">
      <g>
       <use style="stroke:#000000;stroke-width:0.5;" x="325.782353164" xlink:href="#m177f7580d0" y="388.8"/>
      </g>
     </g>
     <g id="line2d_27">
      <g>
       <use style="stroke:#000000;stroke-width:0.5;" x="325.782353164" xlink:href="#m5284c7e2a0" y="43.2"/>
      </g>
     </g>
    </g>
    <g id="xtick_10">
     <g id="line2d_28">
      <g>
       <use style="stroke:#000000;stroke-width:0.5;" x="341.962106371" xlink:href="#m177f7580d0" y="388.8"/>
      </g>
     </g>
     <g id="line2d_29">
      <g>
       <use style="stroke:#000000;stroke-width:0.5;" x="341.962106371" xlink:href="#m5284c7e2a0" y="43.2"/>
      </g>
     </g>
    </g>
    <g id="xtick_11">
     <g id="line2d_30">
      <g>
       <use style="stroke:#000000;stroke-width:0.5;" x="356.233660134" xlink:href="#m177f7580d0" y="388.8"/>
      </g>
     </g>
     <g id="line2d_31">
      <g>
       <use style="stroke:#000000;stroke-width:0.5;" x="356.233660134" xlink:href="#m5284c7e2a0" y="43.2"/>
      </g>
     </g>
    </g>
    <g id="xtick_12">
     <g id="line2d_32">
      <g>
       <use style="stroke:#000000;stroke-width:0.5;" x="452.98736879" xlink:href="#m177f7580d0" y="388.8"/>
      </g>
     </g>
     <g id="line2d_33">
      <g>
       <use style="stroke:#000000;stroke-width:0.5;" x="452.98736879" xlink:href="#m5284c7e2a0" y="43.2"/>
      </g>
     </g>
    </g>
    <g id="xtick_13">
     <g id="line2d_34">
      <g>
       <use style="stroke:#000000;stroke-width:0.5;" x="502.116830067" xlink:href="#m177f7580d0" y="388.8"/>
      </g>
     </g>
     <g id="line2d_35">
      <g>
       <use style="stroke:#000000;stroke-width:0.5;" x="502.116830067" xlink:href="#m5284c7e2a0" y="43.2"/>
      </g>
     </g>
    </g>
    <g id="xtick_14">
     <g id="line2d_36">
      <g>
       <use style="stroke:#000000;stroke-width:0.5;" x="536.974737581" xlink:href="#m177f7580d0" y="388.8"/>
      </g>
     </g>
     <g id="line2d_37">
      <g>
       <use style="stroke:#000000;stroke-width:0.5;" x="536.974737581" xlink:href="#m5284c7e2a0" y="43.2"/>
      </g>
     </g>
    </g>
    <g id="xtick_15">
     <g id="line2d_38">
      <g>
       <use style="stroke:#000000;stroke-width:0.5;" x="564.01263121" xlink:href="#m177f7580d0" y="388.8"/>
      </g>
     </g>
     <g id="line2d_39">
      <g>
       <use style="stroke:#000000;stroke-width:0.5;" x="564.01263121" xlink:href="#m5284c7e2a0" y="43.2"/>
      </g>
     </g>
    </g>
    <g id="xtick_16">
     <g id="line2d_40">
      <g>
       <use style="stroke:#000000;stroke-width:0.5;" x="586.104198857" xlink:href="#m177f7580d0" y="388.8"/>
      </g>
     </g>
     <g id="line2d_41">
      <g>
       <use style="stroke:#000000;stroke-width:0.5;" x="586.104198857" xlink:href="#m5284c7e2a0" y="43.2"/>
      </g>
     </g>
    </g>
    <g id="xtick_17">
     <g id="line2d_42">
      <g>
       <use style="stroke:#000000;stroke-width:0.5;" x="604.782353164" xlink:href="#m177f7580d0" y="388.8"/>
      </g>
     </g>
     <g id="line2d_43">
      <g>
       <use style="stroke:#000000;stroke-width:0.5;" x="604.782353164" xlink:href="#m5284c7e2a0" y="43.2"/>
      </g>
     </g>
    </g>
    <g id="xtick_18">
     <g id="line2d_44">
      <g>
       <use style="stroke:#000000;stroke-width:0.5;" x="620.962106371" xlink:href="#m177f7580d0" y="388.8"/>
      </g>
     </g>
     <g id="line2d_45">
      <g>
       <use style="stroke:#000000;stroke-width:0.5;" x="620.962106371" xlink:href="#m5284c7e2a0" y="43.2"/>
      </g>
     </g>
    </g>
    <g id="xtick_19">
     <g id="line2d_46">
      <g>
       <use style="stroke:#000000;stroke-width:0.5;" x="635.233660134" xlink:href="#m177f7580d0" y="388.8"/>
      </g>
     </g>
     <g id="line2d_47">
      <g>
       <use style="stroke:#000000;stroke-width:0.5;" x="635.233660134" xlink:href="#m5284c7e2a0" y="43.2"/>
      </g>
     </g>
    </g>
    <g id="text_4">
     <!-- Time in days  -->
     <defs>
      <path d="
M1.21875 54.6875
L18.7031 54.6875
L33.4062 17.5781
L45.9062 54.6875
L63.375 54.6875
L40.375 -5.17188
Q36.9219 -14.3125 32.2969 -17.9375
Q27.6875 -21.5781 20.125 -21.5781
L10.0156 -21.5781
L10.0156 -10.1094
L15.4844 -10.1094
Q19.9219 -10.1094 21.9375 -8.6875
Q23.9688 -7.28125 25.0938 -3.60938
L25.5938 -2.09375
z
" id="BitstreamVeraSans-Bold-79"/>
      <path d="
M8.40625 54.6875
L25.875 54.6875
L25.875 0
L8.40625 0
z

M8.40625 75.9844
L25.875 75.9844
L25.875 61.7188
L8.40625 61.7188
z
" id="BitstreamVeraSans-Bold-69"/>
      <path id="BitstreamVeraSans-Bold-20"/>
      <path d="
M32.9062 24.6094
Q27.4375 24.6094 24.6719 22.75
Q21.9219 20.9062 21.9219 17.2812
Q21.9219 13.9688 24.1406 12.0781
Q26.375 10.2031 30.3281 10.2031
Q35.25 10.2031 38.625 13.7344
Q42 17.2812 42 22.6094
L42 24.6094
z

M59.625 31.2031
L59.625 0
L42 0
L42 8.10938
Q38.4844 3.125 34.0781 0.84375
Q29.6875 -1.42188 23.3906 -1.42188
Q14.8906 -1.42188 9.59375 3.53125
Q4.29688 8.5 4.29688 16.4062
Q4.29688 26.0312 10.9062 30.5156
Q17.5312 35.0156 31.6875 35.0156
L42 35.0156
L42 36.375
Q42 40.5312 38.7188 42.4531
Q35.4531 44.3906 28.5156 44.3906
Q22.9062 44.3906 18.0625 43.2656
Q13.2344 42.1406 9.07812 39.8906
L9.07812 53.2188
Q14.7031 54.5938 20.3594 55.2969
Q26.0312 56 31.6875 56
Q46.4844 56 53.0469 50.1719
Q59.625 44.3438 59.625 31.2031" id="BitstreamVeraSans-Bold-61"/>
      <path d="
M0.484375 72.9062
L67.6719 72.9062
L67.6719 58.6875
L43.5 58.6875
L43.5 0
L24.7031 0
L24.7031 58.6875
L0.484375 58.6875
z
" id="BitstreamVeraSans-Bold-54"/>
      <path d="
M45.6094 46.6875
L45.6094 75.9844
L63.1875 75.9844
L63.1875 0
L45.6094 0
L45.6094 7.90625
Q42 3.07812 37.6406 0.828125
Q33.2969 -1.42188 27.5938 -1.42188
Q17.4844 -1.42188 10.9844 6.60938
Q4.5 14.6562 4.5 27.2969
Q4.5 39.9375 10.9844 47.9688
Q17.4844 56 27.5938 56
Q33.25 56 37.625 53.7344
Q42 51.4688 45.6094 46.6875
M34.0781 11.2812
Q39.7031 11.2812 42.6562 15.375
Q45.6094 19.4844 45.6094 27.2969
Q45.6094 35.1094 42.6562 39.2031
Q39.7031 43.3125 34.0781 43.3125
Q28.5156 43.3125 25.5625 39.2031
Q22.6094 35.1094 22.6094 27.2969
Q22.6094 19.4844 25.5625 15.375
Q28.5156 11.2812 34.0781 11.2812" id="BitstreamVeraSans-Bold-64"/>
      <path d="
M62.9844 27.4844
L62.9844 22.5156
L22.125 22.5156
Q22.75 16.3594 26.5625 13.2812
Q30.375 10.2031 37.2031 10.2031
Q42.7188 10.2031 48.5 11.8438
Q54.2969 13.4844 60.4062 16.7969
L60.4062 3.32812
Q54.2031 0.984375 48 -0.21875
Q41.7969 -1.42188 35.5938 -1.42188
Q20.75 -1.42188 12.5156 6.125
Q4.29688 13.6719 4.29688 27.2969
Q4.29688 40.6719 12.375 48.3281
Q20.4531 56 34.625 56
Q47.5156 56 55.25 48.2344
Q62.9844 40.4844 62.9844 27.4844
M45.0156 33.2969
Q45.0156 38.2812 42.1094 41.3281
Q39.2031 44.3906 34.5156 44.3906
Q29.4375 44.3906 26.2656 41.5312
Q23.0938 38.6719 22.3125 33.2969
z
" id="BitstreamVeraSans-Bold-65"/>
      <path d="
M51.125 52.9844
L51.125 39.7031
Q45.5156 42.0469 40.2812 43.2188
Q35.0625 44.3906 30.4219 44.3906
Q25.4375 44.3906 23.0156 43.1406
Q20.6094 41.8906 20.6094 39.3125
Q20.6094 37.2031 22.4375 36.0781
Q24.2656 34.9688 29 34.4219
L32.0781 33.9844
Q45.5156 32.2812 50.1406 28.375
Q54.7812 24.4688 54.7812 16.1094
Q54.7812 7.375 48.3281 2.96875
Q41.8906 -1.42188 29.1094 -1.42188
Q23.6875 -1.42188 17.8906 -0.5625
Q12.1094 0.296875 6 2
L6 15.2812
Q11.2344 12.75 16.7188 11.4688
Q22.2188 10.2031 27.875 10.2031
Q33.0156 10.2031 35.5938 11.6094
Q38.1875 13.0312 38.1875 15.8281
Q38.1875 18.1719 36.4062 19.3125
Q34.625 20.4531 29.2969 21.0938
L26.2188 21.4844
Q14.5469 22.9531 9.85938 26.9062
Q5.17188 30.8594 5.17188 38.9219
Q5.17188 47.6094 11.125 51.7969
Q17.0938 56 29.3906 56
Q34.2344 56 39.5469 55.2656
Q44.875 54.5469 51.125 52.9844" id="BitstreamVeraSans-Bold-73"/>
      <path d="
M59.0781 45.6094
Q62.4062 50.6875 66.9688 53.3438
Q71.5312 56 77 56
Q86.4219 56 91.3594 50.1875
Q96.2969 44.3906 96.2969 33.2969
L96.2969 0
L78.7188 0
L78.7188 28.5156
Q78.7656 29.1562 78.7812 29.8281
Q78.8125 30.5156 78.8125 31.7812
Q78.8125 37.5938 77.0938 40.2031
Q75.3906 42.8281 71.5781 42.8281
Q66.6094 42.8281 63.8906 38.7188
Q61.1875 34.625 61.0781 26.8594
L61.0781 0
L43.5 0
L43.5 28.5156
Q43.5 37.5938 41.9375 40.2031
Q40.375 42.8281 36.375 42.8281
Q31.3438 42.8281 28.6094 38.7031
Q25.875 34.5781 25.875 26.9062
L25.875 0
L8.29688 0
L8.29688 54.6875
L25.875 54.6875
L25.875 46.6875
Q29.1094 51.3125 33.2812 53.6562
Q37.4531 56 42.4844 56
Q48.1406 56 52.4844 53.2656
Q56.8438 50.5312 59.0781 45.6094" id="BitstreamVeraSans-Bold-6d"/>
      <path d="
M63.375 33.2969
L63.375 0
L45.7969 0
L45.7969 5.42188
L45.7969 25.4844
Q45.7969 32.5625 45.4844 35.25
Q45.1719 37.9375 44.3906 39.2031
Q43.3594 40.9219 41.5938 41.875
Q39.8438 42.8281 37.5938 42.8281
Q32.125 42.8281 29 38.5938
Q25.875 34.375 25.875 26.9062
L25.875 0
L8.40625 0
L8.40625 54.6875
L25.875 54.6875
L25.875 46.6875
Q29.8281 51.4688 34.2656 53.7344
Q38.7188 56 44.0938 56
Q53.5625 56 58.4688 50.1875
Q63.375 44.3906 63.375 33.2969" id="BitstreamVeraSans-Bold-6e"/>
     </defs>
     <g transform="translate(330.9013125 416.7063125)scale(0.108 -0.108)">
      <use xlink:href="#BitstreamVeraSans-Bold-54"/>
      <use x="68.212890625" xlink:href="#BitstreamVeraSans-Bold-69"/>
      <use x="102.490234375" xlink:href="#BitstreamVeraSans-Bold-6d"/>
      <use x="206.689453125" xlink:href="#BitstreamVeraSans-Bold-65"/>
      <use x="274.51171875" xlink:href="#BitstreamVeraSans-Bold-20"/>
      <use x="309.326171875" xlink:href="#BitstreamVeraSans-Bold-69"/>
      <use x="343.603515625" xlink:href="#BitstreamVeraSans-Bold-6e"/>
      <use x="414.794921875" xlink:href="#BitstreamVeraSans-Bold-20"/>
      <use x="449.609375" xlink:href="#BitstreamVeraSans-Bold-64"/>
      <use x="521.19140625" xlink:href="#BitstreamVeraSans-Bold-61"/>
      <use x="585.546875" xlink:href="#BitstreamVeraSans-Bold-79"/>
      <use x="650.732421875" xlink:href="#BitstreamVeraSans-Bold-73"/>
      <use x="710.25390625" xlink:href="#BitstreamVeraSans-Bold-20"/>
     </g>
    </g>
   </g>
   <g id="matplotlib.axis_2">
    <g id="ytick_1">
     <g id="line2d_48">
      <defs>
       <path d="
M0 0
L4 0" id="m728421d6d4" style="stroke:#000000;stroke-width:0.5;"/>
      </defs>
      <g>
       <use style="stroke:#000000;stroke-width:0.5;" x="90.0" xlink:href="#m728421d6d4" y="388.8"/>
      </g>
     </g>
     <g id="line2d_49">
      <defs>
       <path d="
M0 0
L-4 0" id="mcb0005524f" style="stroke:#000000;stroke-width:0.5;"/>
      </defs>
      <g>
       <use style="stroke:#000000;stroke-width:0.5;" x="648.0" xlink:href="#mcb0005524f" y="388.8"/>
      </g>
     </g>
     <g id="text_5">
      <!-- $\mathdefault{10^{2}}$ -->
      <defs>
       <path d="
M28.8125 13.8125
L60.8906 13.8125
L60.8906 0
L7.90625 0
L7.90625 13.8125
L34.5156 37.3125
Q38.0938 40.5312 39.7969 43.6094
Q41.5 46.6875 41.5 50
Q41.5 55.125 38.0625 58.25
Q34.625 61.375 28.9062 61.375
Q24.5156 61.375 19.2812 59.5
Q14.0625 57.625 8.10938 53.9062
L8.10938 69.9219
Q14.4531 72.0156 20.6562 73.1094
Q26.8594 74.2188 32.8125 74.2188
Q45.9062 74.2188 53.1562 68.4531
Q60.4062 62.7031 60.4062 52.3906
Q60.4062 46.4375 57.3281 41.2812
Q54.25 36.1406 44.3906 27.4844
z
" id="BitstreamVeraSans-Bold-32"/>
      </defs>
      <g transform="translate(65.1 392.0703125)scale(0.1 -0.1)">
       <use transform="translate(0.0 0.546875)" xlink:href="#BitstreamVeraSans-Bold-31"/>
       <use transform="translate(69.580078125 0.546875)" xlink:href="#BitstreamVeraSans-Bold-30"/>
       <use transform="translate(139.16015625 53.046875)scale(0.7)" xlink:href="#BitstreamVeraSans-Bold-32"/>
      </g>
     </g>
    </g>
    <g id="ytick_2">
     <g id="line2d_50">
      <g>
       <use style="stroke:#000000;stroke-width:0.5;" x="90.0" xlink:href="#m728421d6d4" y="319.68"/>
      </g>
     </g>
     <g id="line2d_51">
      <g>
       <use style="stroke:#000000;stroke-width:0.5;" x="648.0" xlink:href="#mcb0005524f" y="319.68"/>
      </g>
     </g>
     <g id="text_6">
      <!-- $\mathdefault{10^{3}}$ -->
      <defs>
       <path d="
M46.5781 39.3125
Q53.9531 37.4062 57.7812 32.6875
Q61.625 27.9844 61.625 20.7031
Q61.625 9.85938 53.3125 4.21875
Q45.0156 -1.42188 29.1094 -1.42188
Q23.4844 -1.42188 17.8438 -0.515625
Q12.2031 0.390625 6.6875 2.20312
L6.6875 16.7031
Q11.9688 14.0625 17.1562 12.7188
Q22.3594 11.375 27.3906 11.375
Q34.8594 11.375 38.8438 13.9531
Q42.8281 16.5469 42.8281 21.3906
Q42.8281 26.375 38.75 28.9375
Q34.6719 31.5 26.7031 31.5
L19.1875 31.5
L19.1875 43.6094
L27.0938 43.6094
Q34.1875 43.6094 37.6406 45.8281
Q41.1094 48.0469 41.1094 52.5938
Q41.1094 56.7812 37.7344 59.0781
Q34.375 61.375 28.2188 61.375
Q23.6875 61.375 19.0469 60.3438
Q14.4062 59.3281 9.8125 57.3281
L9.8125 71.0938
Q15.375 72.6562 20.8438 73.4375
Q26.3125 74.2188 31.5938 74.2188
Q45.7969 74.2188 52.8438 69.5469
Q59.9062 64.8906 59.9062 55.5156
Q59.9062 49.125 56.5312 45.0469
Q53.1719 40.9688 46.5781 39.3125" id="BitstreamVeraSans-Bold-33"/>
      </defs>
      <g transform="translate(65.1 322.9503125)scale(0.1 -0.1)">
       <use transform="translate(0.0 0.546875)" xlink:href="#BitstreamVeraSans-Bold-31"/>
       <use transform="translate(69.580078125 0.546875)" xlink:href="#BitstreamVeraSans-Bold-30"/>
       <use transform="translate(139.16015625 53.046875)scale(0.7)" xlink:href="#BitstreamVeraSans-Bold-33"/>
      </g>
     </g>
    </g>
    <g id="ytick_3">
     <g id="line2d_52">
      <g>
       <use style="stroke:#000000;stroke-width:0.5;" x="90.0" xlink:href="#m728421d6d4" y="250.56"/>
      </g>
     </g>
     <g id="line2d_53">
      <g>
       <use style="stroke:#000000;stroke-width:0.5;" x="648.0" xlink:href="#mcb0005524f" y="250.56"/>
      </g>
     </g>
     <g id="text_7">
      <!-- $\mathdefault{10^{4}}$ -->
      <defs>
       <path d="
M36.8125 57.4219
L16.2188 26.9062
L36.8125 26.9062
z

M33.6875 72.9062
L54.5938 72.9062
L54.5938 26.9062
L64.9844 26.9062
L64.9844 13.2812
L54.5938 13.2812
L54.5938 0
L36.8125 0
L36.8125 13.2812
L4.5 13.2812
L4.5 29.3906
z
" id="BitstreamVeraSans-Bold-34"/>
      </defs>
      <g transform="translate(65.1 253.7803125)scale(0.1 -0.1)">
       <use transform="translate(0.0 0.465625)" xlink:href="#BitstreamVeraSans-Bold-31"/>
       <use transform="translate(69.580078125 0.465625)" xlink:href="#BitstreamVeraSans-Bold-30"/>
       <use transform="translate(139.16015625 52.965625)scale(0.7)" xlink:href="#BitstreamVeraSans-Bold-34"/>
      </g>
     </g>
    </g>
    <g id="ytick_4">
     <g id="line2d_54">
      <g>
       <use style="stroke:#000000;stroke-width:0.5;" x="90.0" xlink:href="#m728421d6d4" y="181.44"/>
      </g>
     </g>
     <g id="line2d_55">
      <g>
       <use style="stroke:#000000;stroke-width:0.5;" x="648.0" xlink:href="#mcb0005524f" y="181.44"/>
      </g>
     </g>
     <g id="text_8">
      <!-- $\mathdefault{10^{5}}$ -->
      <defs>
       <path d="
M10.5938 72.9062
L57.3281 72.9062
L57.3281 59.0781
L25.5938 59.0781
L25.5938 47.7969
Q27.7344 48.3906 29.9062 48.7031
Q32.0781 49.0312 34.4219 49.0312
Q47.75 49.0312 55.1719 42.3594
Q62.5938 35.6875 62.5938 23.7812
Q62.5938 11.9688 54.5156 5.26562
Q46.4375 -1.42188 32.0781 -1.42188
Q25.875 -1.42188 19.7969 -0.21875
Q13.7188 0.984375 7.71875 3.42188
L7.71875 18.2188
Q13.6719 14.7969 19.0156 13.0781
Q24.3594 11.375 29.1094 11.375
Q35.9375 11.375 39.8594 14.7188
Q43.7969 18.0625 43.7969 23.7812
Q43.7969 29.5469 39.8594 32.8594
Q35.9375 36.1875 29.1094 36.1875
Q25.0469 36.1875 20.4531 35.125
Q15.875 34.0781 10.5938 31.8906
z
" id="BitstreamVeraSans-Bold-35"/>
      </defs>
      <g transform="translate(65.1 184.6603125)scale(0.1 -0.1)">
       <use transform="translate(0.0 0.465625)" xlink:href="#BitstreamVeraSans-Bold-31"/>
       <use transform="translate(69.580078125 0.465625)" xlink:href="#BitstreamVeraSans-Bold-30"/>
       <use transform="translate(139.16015625 52.965625)scale(0.7)" xlink:href="#BitstreamVeraSans-Bold-35"/>
      </g>
     </g>
    </g>
    <g id="ytick_5">
     <g id="line2d_56">
      <g>
       <use style="stroke:#000000;stroke-width:0.5;" x="90.0" xlink:href="#m728421d6d4" y="112.32"/>
      </g>
     </g>
     <g id="line2d_57">
      <g>
       <use style="stroke:#000000;stroke-width:0.5;" x="648.0" xlink:href="#mcb0005524f" y="112.32"/>
      </g>
     </g>
     <g id="text_9">
      <!-- $\mathdefault{10^{6}}$ -->
      <defs>
       <path d="
M36.1875 35.9844
Q31.25 35.9844 28.7812 32.7812
Q26.3125 29.5938 26.3125 23.1875
Q26.3125 16.7969 28.7812 13.5938
Q31.25 10.4062 36.1875 10.4062
Q41.1562 10.4062 43.625 13.5938
Q46.0938 16.7969 46.0938 23.1875
Q46.0938 29.5938 43.625 32.7812
Q41.1562 35.9844 36.1875 35.9844
M59.4219 71
L59.4219 57.5156
Q54.7812 59.7188 50.6719 60.7656
Q46.5781 61.8125 42.6719 61.8125
Q34.2812 61.8125 29.5938 57.1406
Q24.9062 52.4844 24.125 43.3125
Q27.3438 45.7031 31.0938 46.8906
Q34.8594 48.0938 39.3125 48.0938
Q50.4844 48.0938 57.3438 41.5469
Q64.2031 35.0156 64.2031 24.4219
Q64.2031 12.7031 56.5312 5.64062
Q48.875 -1.42188 35.9844 -1.42188
Q21.7812 -1.42188 13.9844 8.17188
Q6.20312 17.7812 6.20312 35.4062
Q6.20312 53.4688 15.3125 63.7969
Q24.4219 74.125 40.2812 74.125
Q45.3125 74.125 50.0469 73.3438
Q54.7812 72.5625 59.4219 71" id="BitstreamVeraSans-Bold-36"/>
      </defs>
      <g transform="translate(65.1 115.5903125)scale(0.1 -0.1)">
       <use transform="translate(0.0 0.6125)" xlink:href="#BitstreamVeraSans-Bold-31"/>
       <use transform="translate(69.580078125 0.6125)" xlink:href="#BitstreamVeraSans-Bold-30"/>
       <use transform="translate(139.16015625 53.1125)scale(0.7)" xlink:href="#BitstreamVeraSans-Bold-36"/>
      </g>
     </g>
    </g>
    <g id="ytick_6">
     <g id="line2d_58">
      <g>
       <use style="stroke:#000000;stroke-width:0.5;" x="90.0" xlink:href="#m728421d6d4" y="43.2"/>
      </g>
     </g>
     <g id="line2d_59">
      <g>
       <use style="stroke:#000000;stroke-width:0.5;" x="648.0" xlink:href="#mcb0005524f" y="43.2"/>
      </g>
     </g>
     <g id="text_10">
      <!-- $\mathdefault{10^{7}}$ -->
      <defs>
       <path d="
M6.6875 72.9062
L61.625 72.9062
L61.625 62.3125
L33.2031 0
L14.8906 0
L41.7969 59.0781
L6.6875 59.0781
z
" id="BitstreamVeraSans-Bold-37"/>
      </defs>
      <g transform="translate(65.1 46.4203125)scale(0.1 -0.1)">
       <use transform="translate(0.0 0.465625)" xlink:href="#BitstreamVeraSans-Bold-31"/>
       <use transform="translate(69.580078125 0.465625)" xlink:href="#BitstreamVeraSans-Bold-30"/>
       <use transform="translate(139.16015625 52.965625)scale(0.7)" xlink:href="#BitstreamVeraSans-Bold-37"/>
      </g>
     </g>
    </g>
    <g id="ytick_7">
     <g id="line2d_60">
      <defs>
       <path d="
M0 0
L2 0" id="mf0c55a9a47" style="stroke:#000000;stroke-width:0.5;"/>
      </defs>
      <g>
       <use style="stroke:#000000;stroke-width:0.5;" x="90.0" xlink:href="#mf0c55a9a47" y="367.9928067"/>
      </g>
     </g>
     <g id="line2d_61">
      <defs>
       <path d="
M0 0
L-2 0" id="ma4f294b3af" style="stroke:#000000;stroke-width:0.5;"/>
      </defs>
      <g>
       <use style="stroke:#000000;stroke-width:0.5;" x="648.0" xlink:href="#ma4f294b3af" y="367.9928067"/>
      </g>
     </g>
    </g>
    <g id="ytick_8">
     <g id="line2d_62">
      <g>
       <use style="stroke:#000000;stroke-width:0.5;" x="90.0" xlink:href="#mf0c55a9a47" y="355.821378874"/>
      </g>
     </g>
     <g id="line2d_63">
      <g>
       <use style="stroke:#000000;stroke-width:0.5;" x="648.0" xlink:href="#ma4f294b3af" y="355.821378874"/>
      </g>
     </g>
    </g>
    <g id="ytick_9">
     <g id="line2d_64">
      <g>
       <use style="stroke:#000000;stroke-width:0.5;" x="90.0" xlink:href="#mf0c55a9a47" y="347.185613399"/>
      </g>
     </g>
     <g id="line2d_65">
      <g>
       <use style="stroke:#000000;stroke-width:0.5;" x="648.0" xlink:href="#ma4f294b3af" y="347.185613399"/>
      </g>
     </g>
    </g>
    <g id="ytick_10">
     <g id="line2d_66">
      <g>
       <use style="stroke:#000000;stroke-width:0.5;" x="90.0" xlink:href="#mf0c55a9a47" y="340.4871933"/>
      </g>
     </g>
     <g id="line2d_67">
      <g>
       <use style="stroke:#000000;stroke-width:0.5;" x="648.0" xlink:href="#ma4f294b3af" y="340.4871933"/>
      </g>
     </g>
    </g>
    <g id="ytick_11">
     <g id="line2d_68">
      <g>
       <use style="stroke:#000000;stroke-width:0.5;" x="90.0" xlink:href="#mf0c55a9a47" y="335.014185573"/>
      </g>
     </g>
     <g id="line2d_69">
      <g>
       <use style="stroke:#000000;stroke-width:0.5;" x="648.0" xlink:href="#ma4f294b3af" y="335.014185573"/>
      </g>
     </g>
    </g>
    <g id="ytick_12">
     <g id="line2d_70">
      <g>
       <use style="stroke:#000000;stroke-width:0.5;" x="90.0" xlink:href="#mf0c55a9a47" y="330.386823474"/>
      </g>
     </g>
     <g id="line2d_71">
      <g>
       <use style="stroke:#000000;stroke-width:0.5;" x="648.0" xlink:href="#ma4f294b3af" y="330.386823474"/>
      </g>
     </g>
    </g>
    <g id="ytick_13">
     <g id="line2d_72">
      <g>
       <use style="stroke:#000000;stroke-width:0.5;" x="90.0" xlink:href="#mf0c55a9a47" y="326.378420099"/>
      </g>
     </g>
     <g id="line2d_73">
      <g>
       <use style="stroke:#000000;stroke-width:0.5;" x="648.0" xlink:href="#ma4f294b3af" y="326.378420099"/>
      </g>
     </g>
    </g>
    <g id="ytick_14">
     <g id="line2d_74">
      <g>
       <use style="stroke:#000000;stroke-width:0.5;" x="90.0" xlink:href="#mf0c55a9a47" y="322.842757748"/>
      </g>
     </g>
     <g id="line2d_75">
      <g>
       <use style="stroke:#000000;stroke-width:0.5;" x="648.0" xlink:href="#ma4f294b3af" y="322.842757748"/>
      </g>
     </g>
    </g>
    <g id="ytick_15">
     <g id="line2d_76">
      <g>
       <use style="stroke:#000000;stroke-width:0.5;" x="90.0" xlink:href="#mf0c55a9a47" y="298.8728067"/>
      </g>
     </g>
     <g id="line2d_77">
      <g>
       <use style="stroke:#000000;stroke-width:0.5;" x="648.0" xlink:href="#ma4f294b3af" y="298.8728067"/>
      </g>
     </g>
    </g>
    <g id="ytick_16">
     <g id="line2d_78">
      <g>
       <use style="stroke:#000000;stroke-width:0.5;" x="90.0" xlink:href="#mf0c55a9a47" y="286.701378874"/>
      </g>
     </g>
     <g id="line2d_79">
      <g>
       <use style="stroke:#000000;stroke-width:0.5;" x="648.0" xlink:href="#ma4f294b3af" y="286.701378874"/>
      </g>
     </g>
    </g>
    <g id="ytick_17">
     <g id="line2d_80">
      <g>
       <use style="stroke:#000000;stroke-width:0.5;" x="90.0" xlink:href="#mf0c55a9a47" y="278.065613399"/>
      </g>
     </g>
     <g id="line2d_81">
      <g>
       <use style="stroke:#000000;stroke-width:0.5;" x="648.0" xlink:href="#ma4f294b3af" y="278.065613399"/>
      </g>
     </g>
    </g>
    <g id="ytick_18">
     <g id="line2d_82">
      <g>
       <use style="stroke:#000000;stroke-width:0.5;" x="90.0" xlink:href="#mf0c55a9a47" y="271.3671933"/>
      </g>
     </g>
     <g id="line2d_83">
      <g>
       <use style="stroke:#000000;stroke-width:0.5;" x="648.0" xlink:href="#ma4f294b3af" y="271.3671933"/>
      </g>
     </g>
    </g>
    <g id="ytick_19">
     <g id="line2d_84">
      <g>
       <use style="stroke:#000000;stroke-width:0.5;" x="90.0" xlink:href="#mf0c55a9a47" y="265.894185573"/>
      </g>
     </g>
     <g id="line2d_85">
      <g>
       <use style="stroke:#000000;stroke-width:0.5;" x="648.0" xlink:href="#ma4f294b3af" y="265.894185573"/>
      </g>
     </g>
    </g>
    <g id="ytick_20">
     <g id="line2d_86">
      <g>
       <use style="stroke:#000000;stroke-width:0.5;" x="90.0" xlink:href="#mf0c55a9a47" y="261.266823474"/>
      </g>
     </g>
     <g id="line2d_87">
      <g>
       <use style="stroke:#000000;stroke-width:0.5;" x="648.0" xlink:href="#ma4f294b3af" y="261.266823474"/>
      </g>
     </g>
    </g>
    <g id="ytick_21">
     <g id="line2d_88">
      <g>
       <use style="stroke:#000000;stroke-width:0.5;" x="90.0" xlink:href="#mf0c55a9a47" y="257.258420099"/>
      </g>
     </g>
     <g id="line2d_89">
      <g>
       <use style="stroke:#000000;stroke-width:0.5;" x="648.0" xlink:href="#ma4f294b3af" y="257.258420099"/>
      </g>
     </g>
    </g>
    <g id="ytick_22">
     <g id="line2d_90">
      <g>
       <use style="stroke:#000000;stroke-width:0.5;" x="90.0" xlink:href="#mf0c55a9a47" y="253.722757748"/>
      </g>
     </g>
     <g id="line2d_91">
      <g>
       <use style="stroke:#000000;stroke-width:0.5;" x="648.0" xlink:href="#ma4f294b3af" y="253.722757748"/>
      </g>
     </g>
    </g>
    <g id="ytick_23">
     <g id="line2d_92">
      <g>
       <use style="stroke:#000000;stroke-width:0.5;" x="90.0" xlink:href="#mf0c55a9a47" y="229.7528067"/>
      </g>
     </g>
     <g id="line2d_93">
      <g>
       <use style="stroke:#000000;stroke-width:0.5;" x="648.0" xlink:href="#ma4f294b3af" y="229.7528067"/>
      </g>
     </g>
    </g>
    <g id="ytick_24">
     <g id="line2d_94">
      <g>
       <use style="stroke:#000000;stroke-width:0.5;" x="90.0" xlink:href="#mf0c55a9a47" y="217.581378874"/>
      </g>
     </g>
     <g id="line2d_95">
      <g>
       <use style="stroke:#000000;stroke-width:0.5;" x="648.0" xlink:href="#ma4f294b3af" y="217.581378874"/>
      </g>
     </g>
    </g>
    <g id="ytick_25">
     <g id="line2d_96">
      <g>
       <use style="stroke:#000000;stroke-width:0.5;" x="90.0" xlink:href="#mf0c55a9a47" y="208.945613399"/>
      </g>
     </g>
     <g id="line2d_97">
      <g>
       <use style="stroke:#000000;stroke-width:0.5;" x="648.0" xlink:href="#ma4f294b3af" y="208.945613399"/>
      </g>
     </g>
    </g>
    <g id="ytick_26">
     <g id="line2d_98">
      <g>
       <use style="stroke:#000000;stroke-width:0.5;" x="90.0" xlink:href="#mf0c55a9a47" y="202.2471933"/>
      </g>
     </g>
     <g id="line2d_99">
      <g>
       <use style="stroke:#000000;stroke-width:0.5;" x="648.0" xlink:href="#ma4f294b3af" y="202.2471933"/>
      </g>
     </g>
    </g>
    <g id="ytick_27">
     <g id="line2d_100">
      <g>
       <use style="stroke:#000000;stroke-width:0.5;" x="90.0" xlink:href="#mf0c55a9a47" y="196.774185573"/>
      </g>
     </g>
     <g id="line2d_101">
      <g>
       <use style="stroke:#000000;stroke-width:0.5;" x="648.0" xlink:href="#ma4f294b3af" y="196.774185573"/>
      </g>
     </g>
    </g>
    <g id="ytick_28">
     <g id="line2d_102">
      <g>
       <use style="stroke:#000000;stroke-width:0.5;" x="90.0" xlink:href="#mf0c55a9a47" y="192.146823474"/>
      </g>
     </g>
     <g id="line2d_103">
      <g>
       <use style="stroke:#000000;stroke-width:0.5;" x="648.0" xlink:href="#ma4f294b3af" y="192.146823474"/>
      </g>
     </g>
    </g>
    <g id="ytick_29">
     <g id="line2d_104">
      <g>
       <use style="stroke:#000000;stroke-width:0.5;" x="90.0" xlink:href="#mf0c55a9a47" y="188.138420099"/>
      </g>
     </g>
     <g id="line2d_105">
      <g>
       <use style="stroke:#000000;stroke-width:0.5;" x="648.0" xlink:href="#ma4f294b3af" y="188.138420099"/>
      </g>
     </g>
    </g>
    <g id="ytick_30">
     <g id="line2d_106">
      <g>
       <use style="stroke:#000000;stroke-width:0.5;" x="90.0" xlink:href="#mf0c55a9a47" y="184.602757748"/>
      </g>
     </g>
     <g id="line2d_107">
      <g>
       <use style="stroke:#000000;stroke-width:0.5;" x="648.0" xlink:href="#ma4f294b3af" y="184.602757748"/>
      </g>
     </g>
    </g>
    <g id="ytick_31">
     <g id="line2d_108">
      <g>
       <use style="stroke:#000000;stroke-width:0.5;" x="90.0" xlink:href="#mf0c55a9a47" y="160.6328067"/>
      </g>
     </g>
     <g id="line2d_109">
      <g>
       <use style="stroke:#000000;stroke-width:0.5;" x="648.0" xlink:href="#ma4f294b3af" y="160.6328067"/>
      </g>
     </g>
    </g>
    <g id="ytick_32">
     <g id="line2d_110">
      <g>
       <use style="stroke:#000000;stroke-width:0.5;" x="90.0" xlink:href="#mf0c55a9a47" y="148.461378874"/>
      </g>
     </g>
     <g id="line2d_111">
      <g>
       <use style="stroke:#000000;stroke-width:0.5;" x="648.0" xlink:href="#ma4f294b3af" y="148.461378874"/>
      </g>
     </g>
    </g>
    <g id="ytick_33">
     <g id="line2d_112">
      <g>
       <use style="stroke:#000000;stroke-width:0.5;" x="90.0" xlink:href="#mf0c55a9a47" y="139.825613399"/>
      </g>
     </g>
     <g id="line2d_113">
      <g>
       <use style="stroke:#000000;stroke-width:0.5;" x="648.0" xlink:href="#ma4f294b3af" y="139.825613399"/>
      </g>
     </g>
    </g>
    <g id="ytick_34">
     <g id="line2d_114">
      <g>
       <use style="stroke:#000000;stroke-width:0.5;" x="90.0" xlink:href="#mf0c55a9a47" y="133.1271933"/>
      </g>
     </g>
     <g id="line2d_115">
      <g>
       <use style="stroke:#000000;stroke-width:0.5;" x="648.0" xlink:href="#ma4f294b3af" y="133.1271933"/>
      </g>
     </g>
    </g>
    <g id="ytick_35">
     <g id="line2d_116">
      <g>
       <use style="stroke:#000000;stroke-width:0.5;" x="90.0" xlink:href="#mf0c55a9a47" y="127.654185573"/>
      </g>
     </g>
     <g id="line2d_117">
      <g>
       <use style="stroke:#000000;stroke-width:0.5;" x="648.0" xlink:href="#ma4f294b3af" y="127.654185573"/>
      </g>
     </g>
    </g>
    <g id="ytick_36">
     <g id="line2d_118">
      <g>
       <use style="stroke:#000000;stroke-width:0.5;" x="90.0" xlink:href="#mf0c55a9a47" y="123.026823474"/>
      </g>
     </g>
     <g id="line2d_119">
      <g>
       <use style="stroke:#000000;stroke-width:0.5;" x="648.0" xlink:href="#ma4f294b3af" y="123.026823474"/>
      </g>
     </g>
    </g>
    <g id="ytick_37">
     <g id="line2d_120">
      <g>
       <use style="stroke:#000000;stroke-width:0.5;" x="90.0" xlink:href="#mf0c55a9a47" y="119.018420099"/>
      </g>
     </g>
     <g id="line2d_121">
      <g>
       <use style="stroke:#000000;stroke-width:0.5;" x="648.0" xlink:href="#ma4f294b3af" y="119.018420099"/>
      </g>
     </g>
    </g>
    <g id="ytick_38">
     <g id="line2d_122">
      <g>
       <use style="stroke:#000000;stroke-width:0.5;" x="90.0" xlink:href="#mf0c55a9a47" y="115.482757748"/>
      </g>
     </g>
     <g id="line2d_123">
      <g>
       <use style="stroke:#000000;stroke-width:0.5;" x="648.0" xlink:href="#ma4f294b3af" y="115.482757748"/>
      </g>
     </g>
    </g>
    <g id="ytick_39">
     <g id="line2d_124">
      <g>
       <use style="stroke:#000000;stroke-width:0.5;" x="90.0" xlink:href="#mf0c55a9a47" y="91.5128066997"/>
      </g>
     </g>
     <g id="line2d_125">
      <g>
       <use style="stroke:#000000;stroke-width:0.5;" x="648.0" xlink:href="#ma4f294b3af" y="91.5128066997"/>
      </g>
     </g>
    </g>
    <g id="ytick_40">
     <g id="line2d_126">
      <g>
       <use style="stroke:#000000;stroke-width:0.5;" x="90.0" xlink:href="#mf0c55a9a47" y="79.3413788738"/>
      </g>
     </g>
     <g id="line2d_127">
      <g>
       <use style="stroke:#000000;stroke-width:0.5;" x="648.0" xlink:href="#ma4f294b3af" y="79.3413788738"/>
      </g>
     </g>
    </g>
    <g id="ytick_41">
     <g id="line2d_128">
      <g>
       <use style="stroke:#000000;stroke-width:0.5;" x="90.0" xlink:href="#mf0c55a9a47" y="70.7056133994"/>
      </g>
     </g>
     <g id="line2d_129">
      <g>
       <use style="stroke:#000000;stroke-width:0.5;" x="648.0" xlink:href="#ma4f294b3af" y="70.7056133994"/>
      </g>
     </g>
    </g>
    <g id="ytick_42">
     <g id="line2d_130">
      <g>
       <use style="stroke:#000000;stroke-width:0.5;" x="90.0" xlink:href="#mf0c55a9a47" y="64.0071933003"/>
      </g>
     </g>
     <g id="line2d_131">
      <g>
       <use style="stroke:#000000;stroke-width:0.5;" x="648.0" xlink:href="#ma4f294b3af" y="64.0071933003"/>
      </g>
     </g>
    </g>
    <g id="ytick_43">
     <g id="line2d_132">
      <g>
       <use style="stroke:#000000;stroke-width:0.5;" x="90.0" xlink:href="#mf0c55a9a47" y="58.5341855735"/>
      </g>
     </g>
     <g id="line2d_133">
      <g>
       <use style="stroke:#000000;stroke-width:0.5;" x="648.0" xlink:href="#ma4f294b3af" y="58.5341855735"/>
      </g>
     </g>
    </g>
    <g id="ytick_44">
     <g id="line2d_134">
      <g>
       <use style="stroke:#000000;stroke-width:0.5;" x="90.0" xlink:href="#mf0c55a9a47" y="53.9068234742"/>
      </g>
     </g>
     <g id="line2d_135">
      <g>
       <use style="stroke:#000000;stroke-width:0.5;" x="648.0" xlink:href="#ma4f294b3af" y="53.9068234742"/>
      </g>
     </g>
    </g>
    <g id="ytick_45">
     <g id="line2d_136">
      <g>
       <use style="stroke:#000000;stroke-width:0.5;" x="90.0" xlink:href="#mf0c55a9a47" y="49.8984200991"/>
      </g>
     </g>
     <g id="line2d_137">
      <g>
       <use style="stroke:#000000;stroke-width:0.5;" x="648.0" xlink:href="#ma4f294b3af" y="49.8984200991"/>
      </g>
     </g>
    </g>
    <g id="ytick_46">
     <g id="line2d_138">
      <g>
       <use style="stroke:#000000;stroke-width:0.5;" x="90.0" xlink:href="#mf0c55a9a47" y="46.3627577476"/>
      </g>
     </g>
     <g id="line2d_139">
      <g>
       <use style="stroke:#000000;stroke-width:0.5;" x="648.0" xlink:href="#ma4f294b3af" y="46.3627577476"/>
      </g>
     </g>
    </g>
    <g id="text_11">
     <!-- Infectious -->
     <defs>
      <path d="
M44.3906 75.9844
L44.3906 64.5
L34.7188 64.5
Q31 64.5 29.5312 63.1562
Q28.0781 61.8125 28.0781 58.5
L28.0781 54.6875
L43.0156 54.6875
L43.0156 42.1875
L28.0781 42.1875
L28.0781 0
L10.5938 0
L10.5938 42.1875
L1.90625 42.1875
L1.90625 54.6875
L10.5938 54.6875
L10.5938 58.5
Q10.5938 67.4375 15.5781 71.7031
Q20.5625 75.9844 31 75.9844
z
" id="BitstreamVeraSans-Bold-66"/>
      <path d="
M9.1875 72.9062
L27.9844 72.9062
L27.9844 0
L9.1875 0
z
" id="BitstreamVeraSans-Bold-49"/>
      <path d="
M7.8125 21.2969
L7.8125 54.6875
L25.3906 54.6875
L25.3906 49.2188
Q25.3906 44.7812 25.3438 38.0625
Q25.2969 31.3438 25.2969 29.1094
Q25.2969 22.5156 25.6406 19.6094
Q25.9844 16.7031 26.8125 15.375
Q27.875 13.6719 29.6094 12.7344
Q31.3438 11.8125 33.5938 11.8125
Q39.0625 11.8125 42.1875 16.0156
Q45.3125 20.2188 45.3125 27.6875
L45.3125 54.6875
L62.7969 54.6875
L62.7969 0
L45.3125 0
L45.3125 7.90625
Q41.3594 3.125 36.9375 0.84375
Q32.5156 -1.42188 27.2031 -1.42188
Q17.7188 -1.42188 12.7656 4.39062
Q7.8125 10.2031 7.8125 21.2969" id="BitstreamVeraSans-Bold-75"/>
      <path d="
M27.4844 70.2188
L27.4844 54.6875
L45.5156 54.6875
L45.5156 42.1875
L27.4844 42.1875
L27.4844 19
Q27.4844 15.1875 29 13.8438
Q30.5156 12.5 35.0156 12.5
L44 12.5
L44 0
L29 0
Q18.6562 0 14.3281 4.3125
Q10.0156 8.64062 10.0156 19
L10.0156 42.1875
L1.3125 42.1875
L1.3125 54.6875
L10.0156 54.6875
L10.0156 70.2188
z
" id="BitstreamVeraSans-Bold-74"/>
      <path d="
M52.5938 52.9844
L52.5938 38.7188
Q49.0312 41.1562 45.4375 42.3281
Q41.8438 43.5 37.9844 43.5
Q30.6719 43.5 26.5938 39.2344
Q22.5156 34.9688 22.5156 27.2969
Q22.5156 19.625 26.5938 15.3438
Q30.6719 11.0781 37.9844 11.0781
Q42.0938 11.0781 45.7812 12.2969
Q49.4688 13.5312 52.5938 15.9219
L52.5938 1.60938
Q48.4844 0.09375 44.2656 -0.65625
Q40.0469 -1.42188 35.7969 -1.42188
Q21 -1.42188 12.6406 6.17188
Q4.29688 13.7656 4.29688 27.2969
Q4.29688 40.8281 12.6406 48.4062
Q21 56 35.7969 56
Q40.0938 56 44.2656 55.25
Q48.4375 54.5 52.5938 52.9844" id="BitstreamVeraSans-Bold-63"/>
      <path d="
M34.4219 43.5
Q28.6094 43.5 25.5625 39.3281
Q22.5156 35.1562 22.5156 27.2969
Q22.5156 19.4375 25.5625 15.25
Q28.6094 11.0781 34.4219 11.0781
Q40.1406 11.0781 43.1562 15.25
Q46.1875 19.4375 46.1875 27.2969
Q46.1875 35.1562 43.1562 39.3281
Q40.1406 43.5 34.4219 43.5
M34.4219 56
Q48.5312 56 56.4688 48.375
Q64.4062 40.7656 64.4062 27.2969
Q64.4062 13.8125 56.4688 6.1875
Q48.5312 -1.42188 34.4219 -1.42188
Q20.2656 -1.42188 12.2812 6.1875
Q4.29688 13.8125 4.29688 27.2969
Q4.29688 40.7656 12.2812 48.375
Q20.2656 56 34.4219 56" id="BitstreamVeraSans-Bold-6f"/>
     </defs>
     <g transform="translate(57.8539375 245.514375)rotate(-90.0)scale(0.108 -0.108)">
      <use xlink:href="#BitstreamVeraSans-Bold-49"/>
      <use x="37.20703125" xlink:href="#BitstreamVeraSans-Bold-6e"/>
      <use x="108.3984375" xlink:href="#BitstreamVeraSans-Bold-66"/>
      <use x="151.904296875" xlink:href="#BitstreamVeraSans-Bold-65"/>
      <use x="219.7265625" xlink:href="#BitstreamVeraSans-Bold-63"/>
      <use x="279.00390625" xlink:href="#BitstreamVeraSans-Bold-74"/>
      <use x="326.806640625" xlink:href="#BitstreamVeraSans-Bold-69"/>
      <use x="361.083984375" xlink:href="#BitstreamVeraSans-Bold-6f"/>
      <use x="429.78515625" xlink:href="#BitstreamVeraSans-Bold-75"/>
      <use x="500.9765625" xlink:href="#BitstreamVeraSans-Bold-73"/>
     </g>
    </g>
   </g>
   <g id="patch_3">
    <path d="
M90 43.2
L648 43.2" style="fill:none;stroke:#000000;stroke-width:0.75;"/>
   </g>
   <g id="patch_4">
    <path d="
M648 388.8
L648 43.2" style="fill:none;stroke:#000000;stroke-width:0.75;"/>
   </g>
   <g id="patch_5">
    <path d="
M90 388.8
L648 388.8" style="fill:none;stroke:#000000;stroke-width:0.75;"/>
   </g>
   <g id="patch_6">
    <path d="
M90 388.8
L90 43.2" style="fill:none;stroke:#000000;stroke-width:0.75;"/>
   </g>
  </g>
 </g>
 <defs>
  <clipPath id="pd03f7f58b8">
   <rect height="345.6" width="558.0" x="90.0" y="43.2"/>
  </clipPath>
 </defs>
</svg>
