<?xml version="1.0" encoding="utf-8" standalone="no"?>
<!DOCTYPE svg PUBLIC "-//W3C//DTD SVG 1.1//EN"
  "http://www.w3.org/Graphics/SVG/1.1/DTD/svg11.dtd">
<!-- Created with matplotlib (http://matplotlib.org/) -->
<svg height="432pt" version="1.1" viewBox="0 0 720 432" width="720pt" xmlns="http://www.w3.org/2000/svg" xmlns:xlink="http://www.w3.org/1999/xlink">
 <defs>
  <style type="text/css">
*{stroke-linecap:butt;stroke-linejoin:round;}
  </style>
 </defs>
 <g id="figure_1">
  <g id="patch_1">
   <path d="
M0 432
L720 432
L720 0
L0 0
z
" style="fill:#ffffff;"/>
  </g>
  <g id="axes_1">
   <g id="patch_2">
    <path d="
M90 388.8
L648 388.8
L648 43.2
L90 43.2
z
" style="fill:#ffffff;"/>
   </g>
   <g id="line2d_1">
    <path clip-path="url(#pd03f7f58b8)" d="
M-1 336.852
L25.4455 325.784
L52.238 309.387
L73.0199 293.968
L90 278.519
L104.356 263.133
L116.793 247.968
L127.762 233.011
L137.574 218.33
L146.451 204.439
L154.555 191.182
L162.009 179.247
L168.911 168.712
L175.336 159.602
L181.347 151.346
L186.993 143.037
L192.316 134.263
L197.352 125.023
L211.005 97.9876
L215.145 90.9149
L219.109 85.4598
L222.911 81.5595
L226.564 79.0667
L230.078 77.7913
L233.465 77.3539
L236.734 77.3437
L242.945 77.6951
L261.906 78.9806
L268.983 79.2718
L275.56 79.3291
L279.7 79.1992
L283.664 78.9175
L287.465 78.4869
L291.118 77.8965
L294.633 77.1722
L299.668 75.8655
L304.445 74.3497
L310.456 72.1366
L328.88 65.071
L334.667 63.136
L340.114 61.5757
L344.254 60.5841
L348.218 59.8152
L352.02 59.2659
L356.564 58.8577
L360.896 58.7389
L365.036 58.8536
L369.773 59.2324
L375.011 59.8857
L381.339 60.9305
L387.265 62.1459
L392.233 63.3499
L398.658 65.179
L403.605 66.8042
L408.809 68.7423
L414.217 71.0416
L418.874 73.2652
L423.742 75.8116
L428.777 78.6754
L434.711 82.3095
L441.009 86.4235
L448.574 91.6316
L455.57 96.6418
L462.93 102.179
L470.276 108.038
L476.107 112.946
L483.201 119.246
L486.994 122.737
L495.352 130.798
L503.572 139.115
L510.108 145.86
L517.009 153.257
L519.971 156.52
L523.877 160.997
L526.059 163.535
L529.029 167.182
L537.665 178.729
L539.424 181.235
L542.727 186.047
L552.093 200.285
L553.603 202.612
L555.612 205.785
L556.342 206.942
L557.272 208.386
L557.784 209.143
L558.599 210.45
L561.492 215.037
L562.08 215.953
L563.436 218.246
L565.247 220.935
L565.717 221.666
L568.401 225.628
L569.037 226.615
L569.759 227.691
L571.363 230.254
L571.716 230.777
L572.854 232.506
L573.287 233.049
L573.805 233.852
L574.918 235.435
L575.342 236.038
L576.269 237.31
L577.435 239.054
L577.848 239.769
L579.076 241.496
L579.401 241.916
L579.724 242.374
L580.769 243.639
L581.008 244.03
L581.722 244.987
L582.038 245.449
L582.431 245.924
L582.744 246.43
L583.987 248.247
L584.295 248.757
L584.909 249.751
L585.061 249.921
L585.214 250.054
L585.896 251.16
L586.724 252.211
L587.545 253.408
L587.989 254.095
L588.211 254.387
L589.238 255.894
L590.253 257.511
L590.541 257.861
L591.115 258.834
L591.4 259.248
L591.827 259.761
L592.11 260.193
L592.392 260.526
L592.744 261.074
L592.955 261.25
L593.722 262.367
L594 262.73
L594.415 263.399
L594.759 263.649
L595.239 264.387
L597.201 267.466
L597.335 267.762
L597.535 268.11
L597.669 268.164
L598.068 268.918
L599.842 271.164
L600.619 272.593
L600.748 272.643
L600.942 272.882
L601.07 273.034
L602.851 276.168
L603.354 277.033
L603.604 277.582
L603.729 277.7
L603.916 278.088
L603.979 278.051
L604.103 278.216
L604.413 278.481
L604.475 278.474
L604.599 278.649
L604.661 278.626
L605.4 279.827
L605.706 280.107
L606.011 280.642
L606.193 280.749
L606.497 281.07
L606.618 281.237
L606.86 281.971
L607.401 282.803
L607.521 282.83
L608.89 284.933
L609.067 285.399
L609.42 285.669
L609.537 285.707
L609.654 286.136
L609.713 286.068
L609.947 286.502
L610.354 287.4
L610.412 287.359
L610.587 287.636
L610.818 288.021
L611.222 288.378
L611.395 288.506
L612.139 289.731
L612.367 290.2
L613.104 291.686
L613.498 292.732
L613.554 292.793
L613.667 293.015
L613.723 292.941
L613.779 292.99
L613.947 293.475
L614.003 293.437
L614.226 293.841
L614.616 294.482
L614.782 294.848
L615.059 295.071
L615.445 295.605
L615.61 295.7
L616.212 296.898
L616.267 296.884
L616.43 297.351
L616.485 297.28
L616.648 297.323
L616.919 297.797
L617.136 298.102
L618.637 300.413
L618.85 300.428
L618.903 300.286
L618.956 300.381
L619.326 301.654
L619.431 301.622
L619.59 301.687
L619.747 301.654
L619.852 302.019
L619.905 301.952
L620.532 302.574
L620.793 303.313
L621 303.365
L621.052 303.278
L621.156 303.734
L621.156 303.734" style="fill:none;opacity:0.8;stroke:#ff0000;stroke-linecap:square;stroke-width:2.0;"/>
   </g>
   <g id="matplotlib.axis_1">
    <g id="xtick_1">
     <g id="line2d_2">
      <defs>
       <path d="
M0 0
L0 -4" id="m93b0483c22" style="stroke:#000000;stroke-width:0.5;"/>
      </defs>
      <g>
       <use style="stroke:#000000;stroke-width:0.5;" x="90.0" xlink:href="#m93b0483c22" y="388.8"/>
      </g>
     </g>
     <g id="line2d_3">
      <defs>
       <path d="
M0 0
L0 4" id="m741efc42ff" style="stroke:#000000;stroke-width:0.5;"/>
      </defs>
      <g>
       <use style="stroke:#000000;stroke-width:0.5;" x="90.0" xlink:href="#m741efc42ff" y="43.2"/>
      </g>
     </g>
     <g id="text_1">
      <!-- $\mathdefault{10^{-1}}$ -->
      <defs>
       <path d="
M5.42188 35.8906
L36.0781 35.8906
L36.0781 21.6875
L5.42188 21.6875
z
" id="BitstreamVeraSans-Bold-2d"/>
       <path d="
M11.7188 12.9844
L28.3281 12.9844
L28.3281 60.1094
L11.2812 56.5938
L11.2812 69.3906
L28.2188 72.9062
L46.0938 72.9062
L46.0938 12.9844
L62.7031 12.9844
L62.7031 0
L11.7188 0
z
" id="BitstreamVeraSans-Bold-31"/>
       <path d="
M46 36.5312
Q46 50.2031 43.4375 55.7812
Q40.875 61.375 34.8125 61.375
Q28.7656 61.375 26.1719 55.7812
Q23.5781 50.2031 23.5781 36.5312
Q23.5781 22.7031 26.1719 17.0312
Q28.7656 11.375 34.8125 11.375
Q40.8281 11.375 43.4062 17.0312
Q46 22.7031 46 36.5312
M64.7969 36.375
Q64.7969 18.2656 56.9844 8.42188
Q49.1719 -1.42188 34.8125 -1.42188
Q20.4062 -1.42188 12.5938 8.42188
Q4.78125 18.2656 4.78125 36.375
Q4.78125 54.5469 12.5938 64.375
Q20.4062 74.2188 34.8125 74.2188
Q49.1719 74.2188 56.9844 64.375
Q64.7969 54.5469 64.7969 36.375" id="BitstreamVeraSans-Bold-30"/>
      </defs>
      <g transform="translate(78.1 401.3203125)scale(0.1 -0.1)">
       <use transform="translate(0.0 0.465625)" xlink:href="#BitstreamVeraSans-Bold-31"/>
       <use transform="translate(69.580078125 0.465625)" xlink:href="#BitstreamVeraSans-Bold-30"/>
       <use transform="translate(139.16015625 52.965625)scale(0.7)" xlink:href="#BitstreamVeraSans-Bold-2d"/>
       <use transform="translate(168.212890625 52.965625)scale(0.7)" xlink:href="#BitstreamVeraSans-Bold-31"/>
      </g>
     </g>
    </g>
    <g id="xtick_2">
     <g id="line2d_4">
      <g>
       <use style="stroke:#000000;stroke-width:0.5;" x="304.445478528" xlink:href="#m93b0483c22" y="388.8"/>
      </g>
     </g>
     <g id="line2d_5">
      <g>
       <use style="stroke:#000000;stroke-width:0.5;" x="304.445478528" xlink:href="#m741efc42ff" y="43.2"/>
      </g>
     </g>
     <g id="text_2">
      <!-- $\mathdefault{10^{0}}$ -->
      <g transform="translate(293.995478528 401.4203125)scale(0.1 -0.1)">
       <use transform="translate(0.0 0.546875)" xlink:href="#BitstreamVeraSans-Bold-31"/>
       <use transform="translate(69.580078125 0.546875)" xlink:href="#BitstreamVeraSans-Bold-30"/>
       <use transform="translate(139.16015625 53.046875)scale(0.7)" xlink:href="#BitstreamVeraSans-Bold-30"/>
      </g>
     </g>
    </g>
    <g id="xtick_3">
     <g id="line2d_6">
      <g>
       <use style="stroke:#000000;stroke-width:0.5;" x="518.890957057" xlink:href="#m93b0483c22" y="388.8"/>
      </g>
     </g>
     <g id="line2d_7">
      <g>
       <use style="stroke:#000000;stroke-width:0.5;" x="518.890957057" xlink:href="#m741efc42ff" y="43.2"/>
      </g>
     </g>
     <g id="text_3">
      <!-- $\mathdefault{10^{1}}$ -->
      <g transform="translate(508.440957057 401.3203125)scale(0.1 -0.1)">
       <use transform="translate(0.0 0.465625)" xlink:href="#BitstreamVeraSans-Bold-31"/>
       <use transform="translate(69.580078125 0.465625)" xlink:href="#BitstreamVeraSans-Bold-30"/>
       <use transform="translate(139.16015625 52.965625)scale(0.7)" xlink:href="#BitstreamVeraSans-Bold-31"/>
      </g>
     </g>
    </g>
    <g id="xtick_4">
     <g id="line2d_8">
      <defs>
       <path d="
M0 0
L0 -2" id="m177f7580d0" style="stroke:#000000;stroke-width:0.5;"/>
      </defs>
      <g>
       <use style="stroke:#000000;stroke-width:0.5;" x="154.554521472" xlink:href="#m177f7580d0" y="388.8"/>
      </g>
     </g>
     <g id="line2d_9">
      <defs>
       <path d="
M0 0
L0 2" id="m5284c7e2a0" style="stroke:#000000;stroke-width:0.5;"/>
      </defs>
      <g>
       <use style="stroke:#000000;stroke-width:0.5;" x="154.554521472" xlink:href="#m5284c7e2a0" y="43.2"/>
      </g>
     </g>
    </g>
    <g id="xtick_5">
     <g id="line2d_10">
      <g>
       <use style="stroke:#000000;stroke-width:0.5;" x="192.316495784" xlink:href="#m177f7580d0" y="388.8"/>
      </g>
     </g>
     <g id="line2d_11">
      <g>
       <use style="stroke:#000000;stroke-width:0.5;" x="192.316495784" xlink:href="#m5284c7e2a0" y="43.2"/>
      </g>
     </g>
    </g>
    <g id="xtick_6">
     <g id="line2d_12">
      <g>
       <use style="stroke:#000000;stroke-width:0.5;" x="219.109042943" xlink:href="#m177f7580d0" y="388.8"/>
      </g>
     </g>
     <g id="line2d_13">
      <g>
       <use style="stroke:#000000;stroke-width:0.5;" x="219.109042943" xlink:href="#m5284c7e2a0" y="43.2"/>
      </g>
     </g>
    </g>
    <g id="xtick_7">
     <g id="line2d_14">
      <g>
       <use style="stroke:#000000;stroke-width:0.5;" x="239.890957057" xlink:href="#m177f7580d0" y="388.8"/>
      </g>
     </g>
     <g id="line2d_15">
      <g>
       <use style="stroke:#000000;stroke-width:0.5;" x="239.890957057" xlink:href="#m5284c7e2a0" y="43.2"/>
      </g>
     </g>
    </g>
    <g id="xtick_8">
     <g id="line2d_16">
      <g>
       <use style="stroke:#000000;stroke-width:0.5;" x="256.871017256" xlink:href="#m177f7580d0" y="388.8"/>
      </g>
     </g>
     <g id="line2d_17">
      <g>
       <use style="stroke:#000000;stroke-width:0.5;" x="256.871017256" xlink:href="#m5284c7e2a0" y="43.2"/>
      </g>
     </g>
    </g>
    <g id="xtick_9">
     <g id="line2d_18">
      <g>
       <use style="stroke:#000000;stroke-width:0.5;" x="271.227453594" xlink:href="#m177f7580d0" y="388.8"/>
      </g>
     </g>
     <g id="line2d_19">
      <g>
       <use style="stroke:#000000;stroke-width:0.5;" x="271.227453594" xlink:href="#m5284c7e2a0" y="43.2"/>
      </g>
     </g>
    </g>
    <g id="xtick_10">
     <g id="line2d_20">
      <g>
       <use style="stroke:#000000;stroke-width:0.5;" x="283.663564415" xlink:href="#m177f7580d0" y="388.8"/>
      </g>
     </g>
     <g id="line2d_21">
      <g>
       <use style="stroke:#000000;stroke-width:0.5;" x="283.663564415" xlink:href="#m5284c7e2a0" y="43.2"/>
      </g>
     </g>
    </g>
    <g id="xtick_11">
     <g id="line2d_22">
      <g>
       <use style="stroke:#000000;stroke-width:0.5;" x="294.632991569" xlink:href="#m177f7580d0" y="388.8"/>
      </g>
     </g>
     <g id="line2d_23">
      <g>
       <use style="stroke:#000000;stroke-width:0.5;" x="294.632991569" xlink:href="#m5284c7e2a0" y="43.2"/>
      </g>
     </g>
    </g>
    <g id="xtick_12">
     <g id="line2d_24">
      <g>
       <use style="stroke:#000000;stroke-width:0.5;" x="369.0" xlink:href="#m177f7580d0" y="388.8"/>
      </g>
     </g>
     <g id="line2d_25">
      <g>
       <use style="stroke:#000000;stroke-width:0.5;" x="369.0" xlink:href="#m5284c7e2a0" y="43.2"/>
      </g>
     </g>
    </g>
    <g id="xtick_13">
     <g id="line2d_26">
      <g>
       <use style="stroke:#000000;stroke-width:0.5;" x="406.761974313" xlink:href="#m177f7580d0" y="388.8"/>
      </g>
     </g>
     <g id="line2d_27">
      <g>
       <use style="stroke:#000000;stroke-width:0.5;" x="406.761974313" xlink:href="#m5284c7e2a0" y="43.2"/>
      </g>
     </g>
    </g>
    <g id="xtick_14">
     <g id="line2d_28">
      <g>
       <use style="stroke:#000000;stroke-width:0.5;" x="433.554521472" xlink:href="#m177f7580d0" y="388.8"/>
      </g>
     </g>
     <g id="line2d_29">
      <g>
       <use style="stroke:#000000;stroke-width:0.5;" x="433.554521472" xlink:href="#m5284c7e2a0" y="43.2"/>
      </g>
     </g>
    </g>
    <g id="xtick_15">
     <g id="line2d_30">
      <g>
       <use style="stroke:#000000;stroke-width:0.5;" x="454.336435585" xlink:href="#m177f7580d0" y="388.8"/>
      </g>
     </g>
     <g id="line2d_31">
      <g>
       <use style="stroke:#000000;stroke-width:0.5;" x="454.336435585" xlink:href="#m5284c7e2a0" y="43.2"/>
      </g>
     </g>
    </g>
    <g id="xtick_16">
     <g id="line2d_32">
      <g>
       <use style="stroke:#000000;stroke-width:0.5;" x="471.316495784" xlink:href="#m177f7580d0" y="388.8"/>
      </g>
     </g>
     <g id="line2d_33">
      <g>
       <use style="stroke:#000000;stroke-width:0.5;" x="471.316495784" xlink:href="#m5284c7e2a0" y="43.2"/>
      </g>
     </g>
    </g>
    <g id="xtick_17">
     <g id="line2d_34">
      <g>
       <use style="stroke:#000000;stroke-width:0.5;" x="485.672932123" xlink:href="#m177f7580d0" y="388.8"/>
      </g>
     </g>
     <g id="line2d_35">
      <g>
       <use style="stroke:#000000;stroke-width:0.5;" x="485.672932123" xlink:href="#m5284c7e2a0" y="43.2"/>
      </g>
     </g>
    </g>
    <g id="xtick_18">
     <g id="line2d_36">
      <g>
       <use style="stroke:#000000;stroke-width:0.5;" x="498.109042943" xlink:href="#m177f7580d0" y="388.8"/>
      </g>
     </g>
     <g id="line2d_37">
      <g>
       <use style="stroke:#000000;stroke-width:0.5;" x="498.109042943" xlink:href="#m5284c7e2a0" y="43.2"/>
      </g>
     </g>
    </g>
    <g id="xtick_19">
     <g id="line2d_38">
      <g>
       <use style="stroke:#000000;stroke-width:0.5;" x="509.078470097" xlink:href="#m177f7580d0" y="388.8"/>
      </g>
     </g>
     <g id="line2d_39">
      <g>
       <use style="stroke:#000000;stroke-width:0.5;" x="509.078470097" xlink:href="#m5284c7e2a0" y="43.2"/>
      </g>
     </g>
    </g>
    <g id="xtick_20">
     <g id="line2d_40">
      <g>
       <use style="stroke:#000000;stroke-width:0.5;" x="583.445478528" xlink:href="#m177f7580d0" y="388.8"/>
      </g>
     </g>
     <g id="line2d_41">
      <g>
       <use style="stroke:#000000;stroke-width:0.5;" x="583.445478528" xlink:href="#m5284c7e2a0" y="43.2"/>
      </g>
     </g>
    </g>
    <g id="xtick_21">
     <g id="line2d_42">
      <g>
       <use style="stroke:#000000;stroke-width:0.5;" x="621.207452841" xlink:href="#m177f7580d0" y="388.8"/>
      </g>
     </g>
     <g id="line2d_43">
      <g>
       <use style="stroke:#000000;stroke-width:0.5;" x="621.207452841" xlink:href="#m5284c7e2a0" y="43.2"/>
      </g>
     </g>
    </g>
    <g id="xtick_22">
     <g id="line2d_44">
      <g>
       <use style="stroke:#000000;stroke-width:0.5;" x="648.0" xlink:href="#m177f7580d0" y="388.8"/>
      </g>
     </g>
     <g id="line2d_45">
      <g>
       <use style="stroke:#000000;stroke-width:0.5;" x="648.0" xlink:href="#m5284c7e2a0" y="43.2"/>
      </g>
     </g>
    </g>
    <g id="text_4">
     <!-- Time in days  -->
     <defs>
      <path d="
M1.21875 54.6875
L18.7031 54.6875
L33.4062 17.5781
L45.9062 54.6875
L63.375 54.6875
L40.375 -5.17188
Q36.9219 -14.3125 32.2969 -17.9375
Q27.6875 -21.5781 20.125 -21.5781
L10.0156 -21.5781
L10.0156 -10.1094
L15.4844 -10.1094
Q19.9219 -10.1094 21.9375 -8.6875
Q23.9688 -7.28125 25.0938 -3.60938
L25.5938 -2.09375
z
" id="BitstreamVeraSans-Bold-79"/>
      <path d="
M8.40625 54.6875
L25.875 54.6875
L25.875 0
L8.40625 0
z

M8.40625 75.9844
L25.875 75.9844
L25.875 61.7188
L8.40625 61.7188
z
" id="BitstreamVeraSans-Bold-69"/>
      <path id="BitstreamVeraSans-Bold-20"/>
      <path d="
M32.9062 24.6094
Q27.4375 24.6094 24.6719 22.75
Q21.9219 20.9062 21.9219 17.2812
Q21.9219 13.9688 24.1406 12.0781
Q26.375 10.2031 30.3281 10.2031
Q35.25 10.2031 38.625 13.7344
Q42 17.2812 42 22.6094
L42 24.6094
z

M59.625 31.2031
L59.625 0
L42 0
L42 8.10938
Q38.4844 3.125 34.0781 0.84375
Q29.6875 -1.42188 23.3906 -1.42188
Q14.8906 -1.42188 9.59375 3.53125
Q4.29688 8.5 4.29688 16.4062
Q4.29688 26.0312 10.9062 30.5156
Q17.5312 35.0156 31.6875 35.0156
L42 35.0156
L42 36.375
Q42 40.5312 38.7188 42.4531
Q35.4531 44.3906 28.5156 44.3906
Q22.9062 44.3906 18.0625 43.2656
Q13.2344 42.1406 9.07812 39.8906
L9.07812 53.2188
Q14.7031 54.5938 20.3594 55.2969
Q26.0312 56 31.6875 56
Q46.4844 56 53.0469 50.1719
Q59.625 44.3438 59.625 31.2031" id="BitstreamVeraSans-Bold-61"/>
      <path d="
M0.484375 72.9062
L67.6719 72.9062
L67.6719 58.6875
L43.5 58.6875
L43.5 0
L24.7031 0
L24.7031 58.6875
L0.484375 58.6875
z
" id="BitstreamVeraSans-Bold-54"/>
      <path d="
M45.6094 46.6875
L45.6094 75.9844
L63.1875 75.9844
L63.1875 0
L45.6094 0
L45.6094 7.90625
Q42 3.07812 37.6406 0.828125
Q33.2969 -1.42188 27.5938 -1.42188
Q17.4844 -1.42188 10.9844 6.60938
Q4.5 14.6562 4.5 27.2969
Q4.5 39.9375 10.9844 47.9688
Q17.4844 56 27.5938 56
Q33.25 56 37.625 53.7344
Q42 51.4688 45.6094 46.6875
M34.0781 11.2812
Q39.7031 11.2812 42.6562 15.375
Q45.6094 19.4844 45.6094 27.2969
Q45.6094 35.1094 42.6562 39.2031
Q39.7031 43.3125 34.0781 43.3125
Q28.5156 43.3125 25.5625 39.2031
Q22.6094 35.1094 22.6094 27.2969
Q22.6094 19.4844 25.5625 15.375
Q28.5156 11.2812 34.0781 11.2812" id="BitstreamVeraSans-Bold-64"/>
      <path d="
M62.9844 27.4844
L62.9844 22.5156
L22.125 22.5156
Q22.75 16.3594 26.5625 13.2812
Q30.375 10.2031 37.2031 10.2031
Q42.7188 10.2031 48.5 11.8438
Q54.2969 13.4844 60.4062 16.7969
L60.4062 3.32812
Q54.2031 0.984375 48 -0.21875
Q41.7969 -1.42188 35.5938 -1.42188
Q20.75 -1.42188 12.5156 6.125
Q4.29688 13.6719 4.29688 27.2969
Q4.29688 40.6719 12.375 48.3281
Q20.4531 56 34.625 56
Q47.5156 56 55.25 48.2344
Q62.9844 40.4844 62.9844 27.4844
M45.0156 33.2969
Q45.0156 38.2812 42.1094 41.3281
Q39.2031 44.3906 34.5156 44.3906
Q29.4375 44.3906 26.2656 41.5312
Q23.0938 38.6719 22.3125 33.2969
z
" id="BitstreamVeraSans-Bold-65"/>
      <path d="
M51.125 52.9844
L51.125 39.7031
Q45.5156 42.0469 40.2812 43.2188
Q35.0625 44.3906 30.4219 44.3906
Q25.4375 44.3906 23.0156 43.1406
Q20.6094 41.8906 20.6094 39.3125
Q20.6094 37.2031 22.4375 36.0781
Q24.2656 34.9688 29 34.4219
L32.0781 33.9844
Q45.5156 32.2812 50.1406 28.375
Q54.7812 24.4688 54.7812 16.1094
Q54.7812 7.375 48.3281 2.96875
Q41.8906 -1.42188 29.1094 -1.42188
Q23.6875 -1.42188 17.8906 -0.5625
Q12.1094 0.296875 6 2
L6 15.2812
Q11.2344 12.75 16.7188 11.4688
Q22.2188 10.2031 27.875 10.2031
Q33.0156 10.2031 35.5938 11.6094
Q38.1875 13.0312 38.1875 15.8281
Q38.1875 18.1719 36.4062 19.3125
Q34.625 20.4531 29.2969 21.0938
L26.2188 21.4844
Q14.5469 22.9531 9.85938 26.9062
Q5.17188 30.8594 5.17188 38.9219
Q5.17188 47.6094 11.125 51.7969
Q17.0938 56 29.3906 56
Q34.2344 56 39.5469 55.2656
Q44.875 54.5469 51.125 52.9844" id="BitstreamVeraSans-Bold-73"/>
      <path d="
M59.0781 45.6094
Q62.4062 50.6875 66.9688 53.3438
Q71.5312 56 77 56
Q86.4219 56 91.3594 50.1875
Q96.2969 44.3906 96.2969 33.2969
L96.2969 0
L78.7188 0
L78.7188 28.5156
Q78.7656 29.1562 78.7812 29.8281
Q78.8125 30.5156 78.8125 31.7812
Q78.8125 37.5938 77.0938 40.2031
Q75.3906 42.8281 71.5781 42.8281
Q66.6094 42.8281 63.8906 38.7188
Q61.1875 34.625 61.0781 26.8594
L61.0781 0
L43.5 0
L43.5 28.5156
Q43.5 37.5938 41.9375 40.2031
Q40.375 42.8281 36.375 42.8281
Q31.3438 42.8281 28.6094 38.7031
Q25.875 34.5781 25.875 26.9062
L25.875 0
L8.29688 0
L8.29688 54.6875
L25.875 54.6875
L25.875 46.6875
Q29.1094 51.3125 33.2812 53.6562
Q37.4531 56 42.4844 56
Q48.1406 56 52.4844 53.2656
Q56.8438 50.5312 59.0781 45.6094" id="BitstreamVeraSans-Bold-6d"/>
      <path d="
M63.375 33.2969
L63.375 0
L45.7969 0
L45.7969 5.42188
L45.7969 25.4844
Q45.7969 32.5625 45.4844 35.25
Q45.1719 37.9375 44.3906 39.2031
Q43.3594 40.9219 41.5938 41.875
Q39.8438 42.8281 37.5938 42.8281
Q32.125 42.8281 29 38.5938
Q25.875 34.375 25.875 26.9062
L25.875 0
L8.40625 0
L8.40625 54.6875
L25.875 54.6875
L25.875 46.6875
Q29.8281 51.4688 34.2656 53.7344
Q38.7188 56 44.0938 56
Q53.5625 56 58.4688 50.1875
Q63.375 44.3906 63.375 33.2969" id="BitstreamVeraSans-Bold-6e"/>
     </defs>
     <g transform="translate(330.9013125 416.7063125)scale(0.108 -0.108)">
      <use xlink:href="#BitstreamVeraSans-Bold-54"/>
      <use x="68.212890625" xlink:href="#BitstreamVeraSans-Bold-69"/>
      <use x="102.490234375" xlink:href="#BitstreamVeraSans-Bold-6d"/>
      <use x="206.689453125" xlink:href="#BitstreamVeraSans-Bold-65"/>
      <use x="274.51171875" xlink:href="#BitstreamVeraSans-Bold-20"/>
      <use x="309.326171875" xlink:href="#BitstreamVeraSans-Bold-69"/>
      <use x="343.603515625" xlink:href="#BitstreamVeraSans-Bold-6e"/>
      <use x="414.794921875" xlink:href="#BitstreamVeraSans-Bold-20"/>
      <use x="449.609375" xlink:href="#BitstreamVeraSans-Bold-64"/>
      <use x="521.19140625" xlink:href="#BitstreamVeraSans-Bold-61"/>
      <use x="585.546875" xlink:href="#BitstreamVeraSans-Bold-79"/>
      <use x="650.732421875" xlink:href="#BitstreamVeraSans-Bold-73"/>
      <use x="710.25390625" xlink:href="#BitstreamVeraSans-Bold-20"/>
     </g>
    </g>
   </g>
   <g id="matplotlib.axis_2">
    <g id="ytick_1">
     <g id="line2d_46">
      <defs>
       <path d="
M0 0
L4 0" id="m728421d6d4" style="stroke:#000000;stroke-width:0.5;"/>
      </defs>
      <g>
       <use style="stroke:#000000;stroke-width:0.5;" x="90.0" xlink:href="#m728421d6d4" y="388.8"/>
      </g>
     </g>
     <g id="line2d_47">
      <defs>
       <path d="
M0 0
L-4 0" id="mcb0005524f" style="stroke:#000000;stroke-width:0.5;"/>
      </defs>
      <g>
       <use style="stroke:#000000;stroke-width:0.5;" x="648.0" xlink:href="#mcb0005524f" y="388.8"/>
      </g>
     </g>
     <g id="text_5">
      <!-- $\mathdefault{10^{2}}$ -->
      <defs>
       <path d="
M28.8125 13.8125
L60.8906 13.8125
L60.8906 0
L7.90625 0
L7.90625 13.8125
L34.5156 37.3125
Q38.0938 40.5312 39.7969 43.6094
Q41.5 46.6875 41.5 50
Q41.5 55.125 38.0625 58.25
Q34.625 61.375 28.9062 61.375
Q24.5156 61.375 19.2812 59.5
Q14.0625 57.625 8.10938 53.9062
L8.10938 69.9219
Q14.4531 72.0156 20.6562 73.1094
Q26.8594 74.2188 32.8125 74.2188
Q45.9062 74.2188 53.1562 68.4531
Q60.4062 62.7031 60.4062 52.3906
Q60.4062 46.4375 57.3281 41.2812
Q54.25 36.1406 44.3906 27.4844
z
" id="BitstreamVeraSans-Bold-32"/>
      </defs>
      <g transform="translate(65.1 392.0703125)scale(0.1 -0.1)">
       <use transform="translate(0.0 0.546875)" xlink:href="#BitstreamVeraSans-Bold-31"/>
       <use transform="translate(69.580078125 0.546875)" xlink:href="#BitstreamVeraSans-Bold-30"/>
       <use transform="translate(139.16015625 53.046875)scale(0.7)" xlink:href="#BitstreamVeraSans-Bold-32"/>
      </g>
     </g>
    </g>
    <g id="ytick_2">
     <g id="line2d_48">
      <g>
       <use style="stroke:#000000;stroke-width:0.5;" x="90.0" xlink:href="#m728421d6d4" y="319.68"/>
      </g>
     </g>
     <g id="line2d_49">
      <g>
       <use style="stroke:#000000;stroke-width:0.5;" x="648.0" xlink:href="#mcb0005524f" y="319.68"/>
      </g>
     </g>
     <g id="text_6">
      <!-- $\mathdefault{10^{3}}$ -->
      <defs>
       <path d="
M46.5781 39.3125
Q53.9531 37.4062 57.7812 32.6875
Q61.625 27.9844 61.625 20.7031
Q61.625 9.85938 53.3125 4.21875
Q45.0156 -1.42188 29.1094 -1.42188
Q23.4844 -1.42188 17.8438 -0.515625
Q12.2031 0.390625 6.6875 2.20312
L6.6875 16.7031
Q11.9688 14.0625 17.1562 12.7188
Q22.3594 11.375 27.3906 11.375
Q34.8594 11.375 38.8438 13.9531
Q42.8281 16.5469 42.8281 21.3906
Q42.8281 26.375 38.75 28.9375
Q34.6719 31.5 26.7031 31.5
L19.1875 31.5
L19.1875 43.6094
L27.0938 43.6094
Q34.1875 43.6094 37.6406 45.8281
Q41.1094 48.0469 41.1094 52.5938
Q41.1094 56.7812 37.7344 59.0781
Q34.375 61.375 28.2188 61.375
Q23.6875 61.375 19.0469 60.3438
Q14.4062 59.3281 9.8125 57.3281
L9.8125 71.0938
Q15.375 72.6562 20.8438 73.4375
Q26.3125 74.2188 31.5938 74.2188
Q45.7969 74.2188 52.8438 69.5469
Q59.9062 64.8906 59.9062 55.5156
Q59.9062 49.125 56.5312 45.0469
Q53.1719 40.9688 46.5781 39.3125" id="BitstreamVeraSans-Bold-33"/>
      </defs>
      <g transform="translate(65.1 322.9503125)scale(0.1 -0.1)">
       <use transform="translate(0.0 0.546875)" xlink:href="#BitstreamVeraSans-Bold-31"/>
       <use transform="translate(69.580078125 0.546875)" xlink:href="#BitstreamVeraSans-Bold-30"/>
       <use transform="translate(139.16015625 53.046875)scale(0.7)" xlink:href="#BitstreamVeraSans-Bold-33"/>
      </g>
     </g>
    </g>
    <g id="ytick_3">
     <g id="line2d_50">
      <g>
       <use style="stroke:#000000;stroke-width:0.5;" x="90.0" xlink:href="#m728421d6d4" y="250.56"/>
      </g>
     </g>
     <g id="line2d_51">
      <g>
       <use style="stroke:#000000;stroke-width:0.5;" x="648.0" xlink:href="#mcb0005524f" y="250.56"/>
      </g>
     </g>
     <g id="text_7">
      <!-- $\mathdefault{10^{4}}$ -->
      <defs>
       <path d="
M36.8125 57.4219
L16.2188 26.9062
L36.8125 26.9062
z

M33.6875 72.9062
L54.5938 72.9062
L54.5938 26.9062
L64.9844 26.9062
L64.9844 13.2812
L54.5938 13.2812
L54.5938 0
L36.8125 0
L36.8125 13.2812
L4.5 13.2812
L4.5 29.3906
z
" id="BitstreamVeraSans-Bold-34"/>
      </defs>
      <g transform="translate(65.1 253.7803125)scale(0.1 -0.1)">
       <use transform="translate(0.0 0.465625)" xlink:href="#BitstreamVeraSans-Bold-31"/>
       <use transform="translate(69.580078125 0.465625)" xlink:href="#BitstreamVeraSans-Bold-30"/>
       <use transform="translate(139.16015625 52.965625)scale(0.7)" xlink:href="#BitstreamVeraSans-Bold-34"/>
      </g>
     </g>
    </g>
    <g id="ytick_4">
     <g id="line2d_52">
      <g>
       <use style="stroke:#000000;stroke-width:0.5;" x="90.0" xlink:href="#m728421d6d4" y="181.44"/>
      </g>
     </g>
     <g id="line2d_53">
      <g>
       <use style="stroke:#000000;stroke-width:0.5;" x="648.0" xlink:href="#mcb0005524f" y="181.44"/>
      </g>
     </g>
     <g id="text_8">
      <!-- $\mathdefault{10^{5}}$ -->
      <defs>
       <path d="
M10.5938 72.9062
L57.3281 72.9062
L57.3281 59.0781
L25.5938 59.0781
L25.5938 47.7969
Q27.7344 48.3906 29.9062 48.7031
Q32.0781 49.0312 34.4219 49.0312
Q47.75 49.0312 55.1719 42.3594
Q62.5938 35.6875 62.5938 23.7812
Q62.5938 11.9688 54.5156 5.26562
Q46.4375 -1.42188 32.0781 -1.42188
Q25.875 -1.42188 19.7969 -0.21875
Q13.7188 0.984375 7.71875 3.42188
L7.71875 18.2188
Q13.6719 14.7969 19.0156 13.0781
Q24.3594 11.375 29.1094 11.375
Q35.9375 11.375 39.8594 14.7188
Q43.7969 18.0625 43.7969 23.7812
Q43.7969 29.5469 39.8594 32.8594
Q35.9375 36.1875 29.1094 36.1875
Q25.0469 36.1875 20.4531 35.125
Q15.875 34.0781 10.5938 31.8906
z
" id="BitstreamVeraSans-Bold-35"/>
      </defs>
      <g transform="translate(65.1 184.6603125)scale(0.1 -0.1)">
       <use transform="translate(0.0 0.465625)" xlink:href="#BitstreamVeraSans-Bold-31"/>
       <use transform="translate(69.580078125 0.465625)" xlink:href="#BitstreamVeraSans-Bold-30"/>
       <use transform="translate(139.16015625 52.965625)scale(0.7)" xlink:href="#BitstreamVeraSans-Bold-35"/>
      </g>
     </g>
    </g>
    <g id="ytick_5">
     <g id="line2d_54">
      <g>
       <use style="stroke:#000000;stroke-width:0.5;" x="90.0" xlink:href="#m728421d6d4" y="112.32"/>
      </g>
     </g>
     <g id="line2d_55">
      <g>
       <use style="stroke:#000000;stroke-width:0.5;" x="648.0" xlink:href="#mcb0005524f" y="112.32"/>
      </g>
     </g>
     <g id="text_9">
      <!-- $\mathdefault{10^{6}}$ -->
      <defs>
       <path d="
M36.1875 35.9844
Q31.25 35.9844 28.7812 32.7812
Q26.3125 29.5938 26.3125 23.1875
Q26.3125 16.7969 28.7812 13.5938
Q31.25 10.4062 36.1875 10.4062
Q41.1562 10.4062 43.625 13.5938
Q46.0938 16.7969 46.0938 23.1875
Q46.0938 29.5938 43.625 32.7812
Q41.1562 35.9844 36.1875 35.9844
M59.4219 71
L59.4219 57.5156
Q54.7812 59.7188 50.6719 60.7656
Q46.5781 61.8125 42.6719 61.8125
Q34.2812 61.8125 29.5938 57.1406
Q24.9062 52.4844 24.125 43.3125
Q27.3438 45.7031 31.0938 46.8906
Q34.8594 48.0938 39.3125 48.0938
Q50.4844 48.0938 57.3438 41.5469
Q64.2031 35.0156 64.2031 24.4219
Q64.2031 12.7031 56.5312 5.64062
Q48.875 -1.42188 35.9844 -1.42188
Q21.7812 -1.42188 13.9844 8.17188
Q6.20312 17.7812 6.20312 35.4062
Q6.20312 53.4688 15.3125 63.7969
Q24.4219 74.125 40.2812 74.125
Q45.3125 74.125 50.0469 73.3438
Q54.7812 72.5625 59.4219 71" id="BitstreamVeraSans-Bold-36"/>
      </defs>
      <g transform="translate(65.1 115.5903125)scale(0.1 -0.1)">
       <use transform="translate(0.0 0.6125)" xlink:href="#BitstreamVeraSans-Bold-31"/>
       <use transform="translate(69.580078125 0.6125)" xlink:href="#BitstreamVeraSans-Bold-30"/>
       <use transform="translate(139.16015625 53.1125)scale(0.7)" xlink:href="#BitstreamVeraSans-Bold-36"/>
      </g>
     </g>
    </g>
    <g id="ytick_6">
     <g id="line2d_56">
      <g>
       <use style="stroke:#000000;stroke-width:0.5;" x="90.0" xlink:href="#m728421d6d4" y="43.2"/>
      </g>
     </g>
     <g id="line2d_57">
      <g>
       <use style="stroke:#000000;stroke-width:0.5;" x="648.0" xlink:href="#mcb0005524f" y="43.2"/>
      </g>
     </g>
     <g id="text_10">
      <!-- $\mathdefault{10^{7}}$ -->
      <defs>
       <path d="
M6.6875 72.9062
L61.625 72.9062
L61.625 62.3125
L33.2031 0
L14.8906 0
L41.7969 59.0781
L6.6875 59.0781
z
" id="BitstreamVeraSans-Bold-37"/>
      </defs>
      <g transform="translate(65.1 46.4203125)scale(0.1 -0.1)">
       <use transform="translate(0.0 0.465625)" xlink:href="#BitstreamVeraSans-Bold-31"/>
       <use transform="translate(69.580078125 0.465625)" xlink:href="#BitstreamVeraSans-Bold-30"/>
       <use transform="translate(139.16015625 52.965625)scale(0.7)" xlink:href="#BitstreamVeraSans-Bold-37"/>
      </g>
     </g>
    </g>
    <g id="ytick_7">
     <g id="line2d_58">
      <defs>
       <path d="
M0 0
L2 0" id="mf0c55a9a47" style="stroke:#000000;stroke-width:0.5;"/>
      </defs>
      <g>
       <use style="stroke:#000000;stroke-width:0.5;" x="90.0" xlink:href="#mf0c55a9a47" y="367.9928067"/>
      </g>
     </g>
     <g id="line2d_59">
      <defs>
       <path d="
M0 0
L-2 0" id="ma4f294b3af" style="stroke:#000000;stroke-width:0.5;"/>
      </defs>
      <g>
       <use style="stroke:#000000;stroke-width:0.5;" x="648.0" xlink:href="#ma4f294b3af" y="367.9928067"/>
      </g>
     </g>
    </g>
    <g id="ytick_8">
     <g id="line2d_60">
      <g>
       <use style="stroke:#000000;stroke-width:0.5;" x="90.0" xlink:href="#mf0c55a9a47" y="355.821378874"/>
      </g>
     </g>
     <g id="line2d_61">
      <g>
       <use style="stroke:#000000;stroke-width:0.5;" x="648.0" xlink:href="#ma4f294b3af" y="355.821378874"/>
      </g>
     </g>
    </g>
    <g id="ytick_9">
     <g id="line2d_62">
      <g>
       <use style="stroke:#000000;stroke-width:0.5;" x="90.0" xlink:href="#mf0c55a9a47" y="347.185613399"/>
      </g>
     </g>
     <g id="line2d_63">
      <g>
       <use style="stroke:#000000;stroke-width:0.5;" x="648.0" xlink:href="#ma4f294b3af" y="347.185613399"/>
      </g>
     </g>
    </g>
    <g id="ytick_10">
     <g id="line2d_64">
      <g>
       <use style="stroke:#000000;stroke-width:0.5;" x="90.0" xlink:href="#mf0c55a9a47" y="340.4871933"/>
      </g>
     </g>
     <g id="line2d_65">
      <g>
       <use style="stroke:#000000;stroke-width:0.5;" x="648.0" xlink:href="#ma4f294b3af" y="340.4871933"/>
      </g>
     </g>
    </g>
    <g id="ytick_11">
     <g id="line2d_66">
      <g>
       <use style="stroke:#000000;stroke-width:0.5;" x="90.0" xlink:href="#mf0c55a9a47" y="335.014185573"/>
      </g>
     </g>
     <g id="line2d_67">
      <g>
       <use style="stroke:#000000;stroke-width:0.5;" x="648.0" xlink:href="#ma4f294b3af" y="335.014185573"/>
      </g>
     </g>
    </g>
    <g id="ytick_12">
     <g id="line2d_68">
      <g>
       <use style="stroke:#000000;stroke-width:0.5;" x="90.0" xlink:href="#mf0c55a9a47" y="330.386823474"/>
      </g>
     </g>
     <g id="line2d_69">
      <g>
       <use style="stroke:#000000;stroke-width:0.5;" x="648.0" xlink:href="#ma4f294b3af" y="330.386823474"/>
      </g>
     </g>
    </g>
    <g id="ytick_13">
     <g id="line2d_70">
      <g>
       <use style="stroke:#000000;stroke-width:0.5;" x="90.0" xlink:href="#mf0c55a9a47" y="326.378420099"/>
      </g>
     </g>
     <g id="line2d_71">
      <g>
       <use style="stroke:#000000;stroke-width:0.5;" x="648.0" xlink:href="#ma4f294b3af" y="326.378420099"/>
      </g>
     </g>
    </g>
    <g id="ytick_14">
     <g id="line2d_72">
      <g>
       <use style="stroke:#000000;stroke-width:0.5;" x="90.0" xlink:href="#mf0c55a9a47" y="322.842757748"/>
      </g>
     </g>
     <g id="line2d_73">
      <g>
       <use style="stroke:#000000;stroke-width:0.5;" x="648.0" xlink:href="#ma4f294b3af" y="322.842757748"/>
      </g>
     </g>
    </g>
    <g id="ytick_15">
     <g id="line2d_74">
      <g>
       <use style="stroke:#000000;stroke-width:0.5;" x="90.0" xlink:href="#mf0c55a9a47" y="298.8728067"/>
      </g>
     </g>
     <g id="line2d_75">
      <g>
       <use style="stroke:#000000;stroke-width:0.5;" x="648.0" xlink:href="#ma4f294b3af" y="298.8728067"/>
      </g>
     </g>
    </g>
    <g id="ytick_16">
     <g id="line2d_76">
      <g>
       <use style="stroke:#000000;stroke-width:0.5;" x="90.0" xlink:href="#mf0c55a9a47" y="286.701378874"/>
      </g>
     </g>
     <g id="line2d_77">
      <g>
       <use style="stroke:#000000;stroke-width:0.5;" x="648.0" xlink:href="#ma4f294b3af" y="286.701378874"/>
      </g>
     </g>
    </g>
    <g id="ytick_17">
     <g id="line2d_78">
      <g>
       <use style="stroke:#000000;stroke-width:0.5;" x="90.0" xlink:href="#mf0c55a9a47" y="278.065613399"/>
      </g>
     </g>
     <g id="line2d_79">
      <g>
       <use style="stroke:#000000;stroke-width:0.5;" x="648.0" xlink:href="#ma4f294b3af" y="278.065613399"/>
      </g>
     </g>
    </g>
    <g id="ytick_18">
     <g id="line2d_80">
      <g>
       <use style="stroke:#000000;stroke-width:0.5;" x="90.0" xlink:href="#mf0c55a9a47" y="271.3671933"/>
      </g>
     </g>
     <g id="line2d_81">
      <g>
       <use style="stroke:#000000;stroke-width:0.5;" x="648.0" xlink:href="#ma4f294b3af" y="271.3671933"/>
      </g>
     </g>
    </g>
    <g id="ytick_19">
     <g id="line2d_82">
      <g>
       <use style="stroke:#000000;stroke-width:0.5;" x="90.0" xlink:href="#mf0c55a9a47" y="265.894185573"/>
      </g>
     </g>
     <g id="line2d_83">
      <g>
       <use style="stroke:#000000;stroke-width:0.5;" x="648.0" xlink:href="#ma4f294b3af" y="265.894185573"/>
      </g>
     </g>
    </g>
    <g id="ytick_20">
     <g id="line2d_84">
      <g>
       <use style="stroke:#000000;stroke-width:0.5;" x="90.0" xlink:href="#mf0c55a9a47" y="261.266823474"/>
      </g>
     </g>
     <g id="line2d_85">
      <g>
       <use style="stroke:#000000;stroke-width:0.5;" x="648.0" xlink:href="#ma4f294b3af" y="261.266823474"/>
      </g>
     </g>
    </g>
    <g id="ytick_21">
     <g id="line2d_86">
      <g>
       <use style="stroke:#000000;stroke-width:0.5;" x="90.0" xlink:href="#mf0c55a9a47" y="257.258420099"/>
      </g>
     </g>
     <g id="line2d_87">
      <g>
       <use style="stroke:#000000;stroke-width:0.5;" x="648.0" xlink:href="#ma4f294b3af" y="257.258420099"/>
      </g>
     </g>
    </g>
    <g id="ytick_22">
     <g id="line2d_88">
      <g>
       <use style="stroke:#000000;stroke-width:0.5;" x="90.0" xlink:href="#mf0c55a9a47" y="253.722757748"/>
      </g>
     </g>
     <g id="line2d_89">
      <g>
       <use style="stroke:#000000;stroke-width:0.5;" x="648.0" xlink:href="#ma4f294b3af" y="253.722757748"/>
      </g>
     </g>
    </g>
    <g id="ytick_23">
     <g id="line2d_90">
      <g>
       <use style="stroke:#000000;stroke-width:0.5;" x="90.0" xlink:href="#mf0c55a9a47" y="229.7528067"/>
      </g>
     </g>
     <g id="line2d_91">
      <g>
       <use style="stroke:#000000;stroke-width:0.5;" x="648.0" xlink:href="#ma4f294b3af" y="229.7528067"/>
      </g>
     </g>
    </g>
    <g id="ytick_24">
     <g id="line2d_92">
      <g>
       <use style="stroke:#000000;stroke-width:0.5;" x="90.0" xlink:href="#mf0c55a9a47" y="217.581378874"/>
      </g>
     </g>
     <g id="line2d_93">
      <g>
       <use style="stroke:#000000;stroke-width:0.5;" x="648.0" xlink:href="#ma4f294b3af" y="217.581378874"/>
      </g>
     </g>
    </g>
    <g id="ytick_25">
     <g id="line2d_94">
      <g>
       <use style="stroke:#000000;stroke-width:0.5;" x="90.0" xlink:href="#mf0c55a9a47" y="208.945613399"/>
      </g>
     </g>
     <g id="line2d_95">
      <g>
       <use style="stroke:#000000;stroke-width:0.5;" x="648.0" xlink:href="#ma4f294b3af" y="208.945613399"/>
      </g>
     </g>
    </g>
    <g id="ytick_26">
     <g id="line2d_96">
      <g>
       <use style="stroke:#000000;stroke-width:0.5;" x="90.0" xlink:href="#mf0c55a9a47" y="202.2471933"/>
      </g>
     </g>
     <g id="line2d_97">
      <g>
       <use style="stroke:#000000;stroke-width:0.5;" x="648.0" xlink:href="#ma4f294b3af" y="202.2471933"/>
      </g>
     </g>
    </g>
    <g id="ytick_27">
     <g id="line2d_98">
      <g>
       <use style="stroke:#000000;stroke-width:0.5;" x="90.0" xlink:href="#mf0c55a9a47" y="196.774185573"/>
      </g>
     </g>
     <g id="line2d_99">
      <g>
       <use style="stroke:#000000;stroke-width:0.5;" x="648.0" xlink:href="#ma4f294b3af" y="196.774185573"/>
      </g>
     </g>
    </g>
    <g id="ytick_28">
     <g id="line2d_100">
      <g>
       <use style="stroke:#000000;stroke-width:0.5;" x="90.0" xlink:href="#mf0c55a9a47" y="192.146823474"/>
      </g>
     </g>
     <g id="line2d_101">
      <g>
       <use style="stroke:#000000;stroke-width:0.5;" x="648.0" xlink:href="#ma4f294b3af" y="192.146823474"/>
      </g>
     </g>
    </g>
    <g id="ytick_29">
     <g id="line2d_102">
      <g>
       <use style="stroke:#000000;stroke-width:0.5;" x="90.0" xlink:href="#mf0c55a9a47" y="188.138420099"/>
      </g>
     </g>
     <g id="line2d_103">
      <g>
       <use style="stroke:#000000;stroke-width:0.5;" x="648.0" xlink:href="#ma4f294b3af" y="188.138420099"/>
      </g>
     </g>
    </g>
    <g id="ytick_30">
     <g id="line2d_104">
      <g>
       <use style="stroke:#000000;stroke-width:0.5;" x="90.0" xlink:href="#mf0c55a9a47" y="184.602757748"/>
      </g>
     </g>
     <g id="line2d_105">
      <g>
       <use style="stroke:#000000;stroke-width:0.5;" x="648.0" xlink:href="#ma4f294b3af" y="184.602757748"/>
      </g>
     </g>
    </g>
    <g id="ytick_31">
     <g id="line2d_106">
      <g>
       <use style="stroke:#000000;stroke-width:0.5;" x="90.0" xlink:href="#mf0c55a9a47" y="160.6328067"/>
      </g>
     </g>
     <g id="line2d_107">
      <g>
       <use style="stroke:#000000;stroke-width:0.5;" x="648.0" xlink:href="#ma4f294b3af" y="160.6328067"/>
      </g>
     </g>
    </g>
    <g id="ytick_32">
     <g id="line2d_108">
      <g>
       <use style="stroke:#000000;stroke-width:0.5;" x="90.0" xlink:href="#mf0c55a9a47" y="148.461378874"/>
      </g>
     </g>
     <g id="line2d_109">
      <g>
       <use style="stroke:#000000;stroke-width:0.5;" x="648.0" xlink:href="#ma4f294b3af" y="148.461378874"/>
      </g>
     </g>
    </g>
    <g id="ytick_33">
     <g id="line2d_110">
      <g>
       <use style="stroke:#000000;stroke-width:0.5;" x="90.0" xlink:href="#mf0c55a9a47" y="139.825613399"/>
      </g>
     </g>
     <g id="line2d_111">
      <g>
       <use style="stroke:#000000;stroke-width:0.5;" x="648.0" xlink:href="#ma4f294b3af" y="139.825613399"/>
      </g>
     </g>
    </g>
    <g id="ytick_34">
     <g id="line2d_112">
      <g>
       <use style="stroke:#000000;stroke-width:0.5;" x="90.0" xlink:href="#mf0c55a9a47" y="133.1271933"/>
      </g>
     </g>
     <g id="line2d_113">
      <g>
       <use style="stroke:#000000;stroke-width:0.5;" x="648.0" xlink:href="#ma4f294b3af" y="133.1271933"/>
      </g>
     </g>
    </g>
    <g id="ytick_35">
     <g id="line2d_114">
      <g>
       <use style="stroke:#000000;stroke-width:0.5;" x="90.0" xlink:href="#mf0c55a9a47" y="127.654185573"/>
      </g>
     </g>
     <g id="line2d_115">
      <g>
       <use style="stroke:#000000;stroke-width:0.5;" x="648.0" xlink:href="#ma4f294b3af" y="127.654185573"/>
      </g>
     </g>
    </g>
    <g id="ytick_36">
     <g id="line2d_116">
      <g>
       <use style="stroke:#000000;stroke-width:0.5;" x="90.0" xlink:href="#mf0c55a9a47" y="123.026823474"/>
      </g>
     </g>
     <g id="line2d_117">
      <g>
       <use style="stroke:#000000;stroke-width:0.5;" x="648.0" xlink:href="#ma4f294b3af" y="123.026823474"/>
      </g>
     </g>
    </g>
    <g id="ytick_37">
     <g id="line2d_118">
      <g>
       <use style="stroke:#000000;stroke-width:0.5;" x="90.0" xlink:href="#mf0c55a9a47" y="119.018420099"/>
      </g>
     </g>
     <g id="line2d_119">
      <g>
       <use style="stroke:#000000;stroke-width:0.5;" x="648.0" xlink:href="#ma4f294b3af" y="119.018420099"/>
      </g>
     </g>
    </g>
    <g id="ytick_38">
     <g id="line2d_120">
      <g>
       <use style="stroke:#000000;stroke-width:0.5;" x="90.0" xlink:href="#mf0c55a9a47" y="115.482757748"/>
      </g>
     </g>
     <g id="line2d_121">
      <g>
       <use style="stroke:#000000;stroke-width:0.5;" x="648.0" xlink:href="#ma4f294b3af" y="115.482757748"/>
      </g>
     </g>
    </g>
    <g id="ytick_39">
     <g id="line2d_122">
      <g>
       <use style="stroke:#000000;stroke-width:0.5;" x="90.0" xlink:href="#mf0c55a9a47" y="91.5128066997"/>
      </g>
     </g>
     <g id="line2d_123">
      <g>
       <use style="stroke:#000000;stroke-width:0.5;" x="648.0" xlink:href="#ma4f294b3af" y="91.5128066997"/>
      </g>
     </g>
    </g>
    <g id="ytick_40">
     <g id="line2d_124">
      <g>
       <use style="stroke:#000000;stroke-width:0.5;" x="90.0" xlink:href="#mf0c55a9a47" y="79.3413788738"/>
      </g>
     </g>
     <g id="line2d_125">
      <g>
       <use style="stroke:#000000;stroke-width:0.5;" x="648.0" xlink:href="#ma4f294b3af" y="79.3413788738"/>
      </g>
     </g>
    </g>
    <g id="ytick_41">
     <g id="line2d_126">
      <g>
       <use style="stroke:#000000;stroke-width:0.5;" x="90.0" xlink:href="#mf0c55a9a47" y="70.7056133994"/>
      </g>
     </g>
     <g id="line2d_127">
      <g>
       <use style="stroke:#000000;stroke-width:0.5;" x="648.0" xlink:href="#ma4f294b3af" y="70.7056133994"/>
      </g>
     </g>
    </g>
    <g id="ytick_42">
     <g id="line2d_128">
      <g>
       <use style="stroke:#000000;stroke-width:0.5;" x="90.0" xlink:href="#mf0c55a9a47" y="64.0071933003"/>
      </g>
     </g>
     <g id="line2d_129">
      <g>
       <use style="stroke:#000000;stroke-width:0.5;" x="648.0" xlink:href="#ma4f294b3af" y="64.0071933003"/>
      </g>
     </g>
    </g>
    <g id="ytick_43">
     <g id="line2d_130">
      <g>
       <use style="stroke:#000000;stroke-width:0.5;" x="90.0" xlink:href="#mf0c55a9a47" y="58.5341855735"/>
      </g>
     </g>
     <g id="line2d_131">
      <g>
       <use style="stroke:#000000;stroke-width:0.5;" x="648.0" xlink:href="#ma4f294b3af" y="58.5341855735"/>
      </g>
     </g>
    </g>
    <g id="ytick_44">
     <g id="line2d_132">
      <g>
       <use style="stroke:#000000;stroke-width:0.5;" x="90.0" xlink:href="#mf0c55a9a47" y="53.9068234742"/>
      </g>
     </g>
     <g id="line2d_133">
      <g>
       <use style="stroke:#000000;stroke-width:0.5;" x="648.0" xlink:href="#ma4f294b3af" y="53.9068234742"/>
      </g>
     </g>
    </g>
    <g id="ytick_45">
     <g id="line2d_134">
      <g>
       <use style="stroke:#000000;stroke-width:0.5;" x="90.0" xlink:href="#mf0c55a9a47" y="49.8984200991"/>
      </g>
     </g>
     <g id="line2d_135">
      <g>
       <use style="stroke:#000000;stroke-width:0.5;" x="648.0" xlink:href="#ma4f294b3af" y="49.8984200991"/>
      </g>
     </g>
    </g>
    <g id="ytick_46">
     <g id="line2d_136">
      <g>
       <use style="stroke:#000000;stroke-width:0.5;" x="90.0" xlink:href="#mf0c55a9a47" y="46.3627577476"/>
      </g>
     </g>
     <g id="line2d_137">
      <g>
       <use style="stroke:#000000;stroke-width:0.5;" x="648.0" xlink:href="#ma4f294b3af" y="46.3627577476"/>
      </g>
     </g>
    </g>
    <g id="text_11">
     <!-- Infectious -->
     <defs>
      <path d="
M44.3906 75.9844
L44.3906 64.5
L34.7188 64.5
Q31 64.5 29.5312 63.1562
Q28.0781 61.8125 28.0781 58.5
L28.0781 54.6875
L43.0156 54.6875
L43.0156 42.1875
L28.0781 42.1875
L28.0781 0
L10.5938 0
L10.5938 42.1875
L1.90625 42.1875
L1.90625 54.6875
L10.5938 54.6875
L10.5938 58.5
Q10.5938 67.4375 15.5781 71.7031
Q20.5625 75.9844 31 75.9844
z
" id="BitstreamVeraSans-Bold-66"/>
      <path d="
M9.1875 72.9062
L27.9844 72.9062
L27.9844 0
L9.1875 0
z
" id="BitstreamVeraSans-Bold-49"/>
      <path d="
M7.8125 21.2969
L7.8125 54.6875
L25.3906 54.6875
L25.3906 49.2188
Q25.3906 44.7812 25.3438 38.0625
Q25.2969 31.3438 25.2969 29.1094
Q25.2969 22.5156 25.6406 19.6094
Q25.9844 16.7031 26.8125 15.375
Q27.875 13.6719 29.6094 12.7344
Q31.3438 11.8125 33.5938 11.8125
Q39.0625 11.8125 42.1875 16.0156
Q45.3125 20.2188 45.3125 27.6875
L45.3125 54.6875
L62.7969 54.6875
L62.7969 0
L45.3125 0
L45.3125 7.90625
Q41.3594 3.125 36.9375 0.84375
Q32.5156 -1.42188 27.2031 -1.42188
Q17.7188 -1.42188 12.7656 4.39062
Q7.8125 10.2031 7.8125 21.2969" id="BitstreamVeraSans-Bold-75"/>
      <path d="
M27.4844 70.2188
L27.4844 54.6875
L45.5156 54.6875
L45.5156 42.1875
L27.4844 42.1875
L27.4844 19
Q27.4844 15.1875 29 13.8438
Q30.5156 12.5 35.0156 12.5
L44 12.5
L44 0
L29 0
Q18.6562 0 14.3281 4.3125
Q10.0156 8.64062 10.0156 19
L10.0156 42.1875
L1.3125 42.1875
L1.3125 54.6875
L10.0156 54.6875
L10.0156 70.2188
z
" id="BitstreamVeraSans-Bold-74"/>
      <path d="
M52.5938 52.9844
L52.5938 38.7188
Q49.0312 41.1562 45.4375 42.3281
Q41.8438 43.5 37.9844 43.5
Q30.6719 43.5 26.5938 39.2344
Q22.5156 34.9688 22.5156 27.2969
Q22.5156 19.625 26.5938 15.3438
Q30.6719 11.0781 37.9844 11.0781
Q42.0938 11.0781 45.7812 12.2969
Q49.4688 13.5312 52.5938 15.9219
L52.5938 1.60938
Q48.4844 0.09375 44.2656 -0.65625
Q40.0469 -1.42188 35.7969 -1.42188
Q21 -1.42188 12.6406 6.17188
Q4.29688 13.7656 4.29688 27.2969
Q4.29688 40.8281 12.6406 48.4062
Q21 56 35.7969 56
Q40.0938 56 44.2656 55.25
Q48.4375 54.5 52.5938 52.9844" id="BitstreamVeraSans-Bold-63"/>
      <path d="
M34.4219 43.5
Q28.6094 43.5 25.5625 39.3281
Q22.5156 35.1562 22.5156 27.2969
Q22.5156 19.4375 25.5625 15.25
Q28.6094 11.0781 34.4219 11.0781
Q40.1406 11.0781 43.1562 15.25
Q46.1875 19.4375 46.1875 27.2969
Q46.1875 35.1562 43.1562 39.3281
Q40.1406 43.5 34.4219 43.5
M34.4219 56
Q48.5312 56 56.4688 48.375
Q64.4062 40.7656 64.4062 27.2969
Q64.4062 13.8125 56.4688 6.1875
Q48.5312 -1.42188 34.4219 -1.42188
Q20.2656 -1.42188 12.2812 6.1875
Q4.29688 13.8125 4.29688 27.2969
Q4.29688 40.7656 12.2812 48.375
Q20.2656 56 34.4219 56" id="BitstreamVeraSans-Bold-6f"/>
     </defs>
     <g transform="translate(57.8539375 245.514375)rotate(-90.0)scale(0.108 -0.108)">
      <use xlink:href="#BitstreamVeraSans-Bold-49"/>
      <use x="37.20703125" xlink:href="#BitstreamVeraSans-Bold-6e"/>
      <use x="108.3984375" xlink:href="#BitstreamVeraSans-Bold-66"/>
      <use x="151.904296875" xlink:href="#BitstreamVeraSans-Bold-65"/>
      <use x="219.7265625" xlink:href="#BitstreamVeraSans-Bold-63"/>
      <use x="279.00390625" xlink:href="#BitstreamVeraSans-Bold-74"/>
      <use x="326.806640625" xlink:href="#BitstreamVeraSans-Bold-69"/>
      <use x="361.083984375" xlink:href="#BitstreamVeraSans-Bold-6f"/>
      <use x="429.78515625" xlink:href="#BitstreamVeraSans-Bold-75"/>
      <use x="500.9765625" xlink:href="#BitstreamVeraSans-Bold-73"/>
     </g>
    </g>
   </g>
   <g id="patch_3">
    <path d="
M90 43.2
L648 43.2" style="fill:none;stroke:#000000;stroke-width:0.75;"/>
   </g>
   <g id="patch_4">
    <path d="
M648 388.8
L648 43.2" style="fill:none;stroke:#000000;stroke-width:0.75;"/>
   </g>
   <g id="patch_5">
    <path d="
M90 388.8
L648 388.8" style="fill:none;stroke:#000000;stroke-width:0.75;"/>
   </g>
   <g id="patch_6">
    <path d="
M90 388.8
L90 43.2" style="fill:none;stroke:#000000;stroke-width:0.75;"/>
   </g>
  </g>
 </g>
 <defs>
  <clipPath id="pd03f7f58b8">
   <rect height="345.6" width="558.0" x="90.0" y="43.2"/>
  </clipPath>
 </defs>
</svg>
